<svg width="30" height="30" viewBox="0 0 30 30" fill="none" xmlns="http://www.w3.org/2000/svg">
<rect width="30" height="30" rx="5" fill="#FF8A00"/>
<path fill-rule="evenodd" clip-rule="evenodd" d="M10.1875 9.75C10.0715 9.75 9.96019 9.79609 9.87814 9.87814C9.79609 9.96019 9.75 10.0715 9.75 10.1875V19.8125C9.75 19.9285 9.79609 20.0398 9.87814 20.1219C9.96019 20.2039 10.0715 20.25 10.1875 20.25H19.8125C19.9285 20.25 20.0398 20.2039 20.1219 20.1219C20.2039 20.0398 20.25 19.9285 20.25 19.8125V10.1875C20.25 10.0715 20.2039 9.96019 20.1219 9.87814C20.0398 9.79609 19.9285 9.75 19.8125 9.75H10.1875ZM14.4348 17.0598L18.3722 13.1223L17.7536 12.5027L14.125 16.1314L12.2473 14.2527L11.6277 14.8723L13.8152 17.0598C13.8559 17.1005 13.9042 17.1328 13.9573 17.1549C14.0105 17.1769 14.0675 17.1883 14.125 17.1883C14.1825 17.1883 14.2395 17.1769 14.2927 17.1549C14.3458 17.1328 14.3941 17.1005 14.4348 17.0598Z" fill="white"/>
</svg>
