<svg width="14" height="14" viewBox="0 0 14 14" fill="none" xmlns="http://www.w3.org/2000/svg">
<path d="M7 3.3125V6.8125L10 8.59375L9.5 9.4375L6 7.3125V3.3125H7ZM2.89062 10.4219C3.94271 11.474 5.19792 12 6.65625 12C8.11458 12 9.36979 11.474 10.4219 10.4219C11.474 9.36979 12 8.11458 12 6.65625C12 5.19792 11.474 3.94271 10.4219 2.89062C9.36979 1.83854 8.11458 1.3125 6.65625 1.3125C5.19792 1.3125 3.94271 1.83854 2.89062 2.89062C1.83854 3.94271 1.3125 5.19792 1.3125 6.65625C1.3125 8.11458 1.83854 9.36979 2.89062 10.4219ZM1.95312 1.95312C3.25521 0.651042 4.82292 0 6.65625 0C8.48958 0 10.0573 0.651042 11.3594 1.95312C12.6615 3.25521 13.3125 4.82292 13.3125 6.65625C13.3125 8.48958 12.6615 10.0573 11.3594 11.3594C10.0573 12.6615 8.48958 13.3125 6.65625 13.3125C4.82292 13.3125 3.25521 12.6615 1.95312 11.3594C0.651042 10.0573 0 8.48958 0 6.65625C0 4.82292 0.651042 3.25521 1.95312 1.95312Z" fill="#9CA3AF"/>
</svg>
