<svg width="30" height="30" viewBox="0 0 30 30" fill="none" xmlns="http://www.w3.org/2000/svg">
<rect width="30" height="30" rx="5" fill="#FF8A00"/>
<path d="M9.33732 14.9923C9.31617 14.0583 9.55351 13.1847 9.97461 12.36C10.1729 11.9718 10.4245 11.6167 10.7092 11.2834C11.2178 10.6881 11.8234 10.2214 12.5238 9.87942C13.0247 9.63479 13.5479 9.45286 14.1061 9.39234C14.3988 9.36062 14.6938 9.30666 14.9858 9.3176C15.3985 9.33328 15.8094 9.39672 16.2207 9.44666C16.3461 9.46198 16.501 9.62896 16.5178 9.74125C16.5521 9.97094 16.4817 10.1237 16.3333 10.2236C16.1499 10.3472 15.9618 10.2775 15.7751 10.2641C15.6789 10.2571 15.5845 10.2167 15.4886 10.2141C15.2246 10.2072 14.9596 10.2014 14.696 10.2152C14.4794 10.2265 14.2628 10.26 14.0485 10.295C13.5205 10.3815 13.0316 10.5791 12.5715 10.8467C12.1111 11.1146 11.7122 11.4624 11.3651 11.8635C10.9357 12.3593 10.6338 12.9292 10.4267 13.5541C10.2269 14.1567 10.1635 14.7765 10.2182 15.3985C10.2998 16.3271 10.6225 17.1736 11.1982 17.9181C11.6561 18.5102 12.2106 18.9845 12.8796 19.3141C13.3317 19.5369 13.8064 19.709 14.3142 19.7549C14.6274 19.7833 14.9439 19.8209 15.2563 19.8048C15.8284 19.7757 16.38 19.6419 16.9097 19.4115C17.3224 19.2321 17.6994 18.9973 18.0498 18.7213C18.5055 18.3625 18.8642 17.9148 19.1603 17.4176C19.4439 16.9407 19.6277 16.4237 19.7323 15.8801C19.7677 15.6967 19.7834 15.5079 19.7907 15.3208C19.8005 15.0656 19.8184 14.8071 19.7885 14.5552C19.7487 14.2223 19.6802 13.8906 19.5971 13.5654C19.5274 13.293 19.7013 13.0349 19.9791 13.0261C20.3215 13.0152 20.4243 13.1745 20.4983 13.5304C20.5749 13.8993 20.6285 14.2752 20.662 14.6504C20.6879 14.9449 20.6923 15.2457 20.6627 15.5396C20.6029 16.1324 20.4826 16.7176 20.2201 17.2564C20.0386 17.6297 19.8344 17.9965 19.6029 18.3407C19.347 18.7206 19.0181 19.041 18.6696 19.3418C18.2893 19.6699 17.8715 19.9357 17.4194 20.1479C16.9465 20.3699 16.4522 20.5209 15.9345 20.6095C15.482 20.6871 15.0285 20.7061 14.576 20.6802C14.0229 20.6485 13.4859 20.5129 12.9675 20.3149C12.3998 20.098 11.8799 19.7924 11.4118 19.4085C10.8704 18.9645 10.4263 18.4322 10.0767 17.8237C9.78575 17.3173 9.57466 16.7759 9.45581 16.2068C9.37305 15.8097 9.35263 15.3996 9.3045 14.9953C9.31581 14.9938 9.32711 14.9923 9.33805 14.9912L9.33732 14.9923Z" fill="white"/>
<path d="M14.5702 17.7639C14.2114 17.765 13.8833 17.6768 13.5978 17.4609C13.1348 17.1109 12.9029 16.6464 12.9449 16.0627C12.9558 15.9136 13.0615 15.7991 13.2096 15.7565C13.3583 15.7135 13.5082 15.716 13.6398 15.8225C13.7641 15.9231 13.8089 16.0554 13.8159 16.2108C13.8315 16.5619 14.0948 16.8236 14.4419 16.8841C14.5086 16.8958 14.58 16.8984 14.5793 16.789C14.5764 16.3522 14.5782 15.9154 14.5782 15.4681C14.0791 15.4404 13.6416 15.2723 13.3157 14.8906C13.0123 14.5351 12.8902 14.11 12.9441 13.6448C13.0192 12.9991 13.5428 12.259 14.5778 12.2295C14.5778 11.9852 14.584 11.7406 14.576 11.496C14.5684 11.2692 14.747 11.0807 14.9617 11.0625C15.1798 11.0439 15.4054 11.1744 15.4229 11.4056C15.443 11.6753 15.4514 11.9462 15.4652 12.2259C15.6071 12.2547 15.7606 12.2857 15.9137 12.3177C16.4857 12.4362 17.018 13.064 17.069 13.6609C17.0884 13.8858 17.084 14.0739 16.8973 14.2212C16.773 14.3193 16.6286 14.3536 16.4879 14.2832C16.3432 14.211 16.2279 14.1049 16.2141 13.9186C16.1853 13.5282 16.0504 13.2759 15.6705 13.157C15.6078 13.1373 15.5382 13.1402 15.4609 13.1319V14.5782C16.5699 14.5741 17.1358 15.4882 17.0854 16.2487C17.03 17.0865 16.3829 17.7464 15.4507 17.7628C15.4507 17.8605 15.4536 17.9586 15.4499 18.057C15.4434 18.232 15.4284 18.407 15.4251 18.582C15.4215 18.8059 15.1513 18.9696 14.9304 18.9364C14.7736 18.9131 14.5589 18.7311 14.5735 18.4876C14.5873 18.2561 14.5757 18.0231 14.5753 17.7909C14.5753 17.7865 14.5731 17.7825 14.5684 17.7639H14.5702ZM14.5727 14.5596V13.1508C14.1637 13.0568 13.8487 13.4345 13.814 13.7622C13.7637 14.2427 14.1907 14.6099 14.5727 14.5596ZM15.4547 16.8874C15.7533 16.8754 15.9829 16.7503 16.1197 16.4988C16.2527 16.2541 16.2458 15.9895 16.0828 15.762C15.9359 15.5571 15.7307 15.4291 15.4547 15.4721V16.8874Z" fill="white"/>
<path d="M18.0989 11.7592C18.7701 11.087 19.4286 10.4271 20.0878 9.76753C20.2868 9.56846 20.5457 9.56154 20.7349 9.74857C20.9154 9.92685 20.915 10.1959 20.7291 10.384C20.3575 10.7592 19.9838 11.1318 19.6109 11.5051C19.2379 11.8788 18.8573 12.2449 18.4949 12.6288C18.2663 12.8709 17.9345 12.8723 17.7099 12.6317C17.3687 12.2657 17.0048 11.9215 16.653 11.5653C16.3716 11.2802 16.5017 10.9145 16.7803 10.8121C16.9687 10.7428 17.1394 10.7927 17.2808 10.9349C17.5503 11.2054 17.8189 11.4774 18.0989 11.76V11.7592Z" fill="white"/>
</svg>
