<svg width="30" height="30" viewBox="0 0 30 30" fill="none" xmlns="http://www.w3.org/2000/svg">
<rect width="30" height="30" rx="5" fill="#FF8A00"/>
<g clip-path="url(#clip0_406_9947)">
<path d="M9.75 11.5H14.125V12.375H9.75V11.5ZM17.625 13.25V14.125H9.75V13.25H17.625ZM17.625 15V15.875H9.75V15H17.625ZM17.625 16.75V17.625H9.75V16.75H17.625ZM9.75 19.375V18.5H16.0801L15.2051 19.375H9.75ZM8.875 21.125H15.8955L16.7705 22H8V8H15.6221L19.375 11.7529V17.6455L18.5 18.5205V12.375H15V8.875H8.875V21.125ZM15.875 9.49707V11.5H17.8779L15.875 9.49707ZM21.2549 17.3174L21.8701 17.9326L18.0625 21.7471L16.2236 19.9014L16.8389 19.2861L18.0625 20.5029L21.2549 17.3174Z" fill="white"/>
</g>
<defs>
<clipPath id="clip0_406_9947">
<rect width="14" height="14" fill="white" transform="translate(8 8)"/>
</clipPath>
</defs>
</svg>
