<svg width="30" height="30" viewBox="0 0 30 30" fill="none" xmlns="http://www.w3.org/2000/svg">
<rect width="30" height="30" rx="5" fill="#FF8A00"/>
<path d="M18.8125 14C18.5117 14 18.2292 13.943 17.9648 13.8291C17.7005 13.7152 17.4681 13.5602 17.2676 13.3643C17.0671 13.1683 16.9098 12.9359 16.7959 12.667C16.682 12.3981 16.625 12.1133 16.625 11.8125C16.625 11.5117 16.682 11.2292 16.7959 10.9648C16.9098 10.7005 17.0648 10.4681 17.2607 10.2676C17.4567 10.0671 17.6891 9.90983 17.958 9.7959C18.2269 9.68197 18.5117 9.625 18.8125 9.625C19.1133 9.625 19.3958 9.68197 19.6602 9.7959C19.9245 9.90983 20.1569 10.0648 20.3574 10.2607C20.5579 10.4567 20.7152 10.6891 20.8291 10.958C20.943 11.2269 21 11.5117 21 11.8125C21 12.1133 20.943 12.3958 20.8291 12.6602C20.7152 12.9245 20.5602 13.1569 20.3643 13.3574C20.1683 13.5579 19.9359 13.7152 19.667 13.8291C19.3981 13.943 19.1133 14 18.8125 14ZM15.5723 10.5C15.5176 10.6413 15.4743 10.7848 15.4424 10.9307C15.4105 11.0765 15.3809 11.2246 15.3535 11.375H7V10.5H15.5723ZM16.1055 14C16.4017 14.3646 16.7503 14.6562 17.1514 14.875H7V14H16.1055ZM7 18.375V17.5H21V18.375H7Z" fill="white"/>
</svg>
