<svg width="30" height="30" viewBox="0 0 30 30" fill="none" xmlns="http://www.w3.org/2000/svg">
<rect width="30" height="30" rx="5" fill="#FF8A00"/>
<path d="M11.4887 9.73105C11.4941 9.38725 11.773 9.18417 12.0137 9.17068C12.3429 9.15245 12.644 9.36719 12.648 9.74272H14.3769C14.4236 9.54548 14.4925 9.35516 14.6875 9.2374C14.8177 9.15902 14.9606 9.15027 15.0918 9.1798C15.3576 9.23995 15.5359 9.39928 15.5672 9.74272H17.2957C17.3216 9.49188 17.5032 9.1973 17.7883 9.17542C18.1897 9.1448 18.353 9.28042 18.4952 9.74745C18.998 9.77152 19.469 9.90386 19.8774 10.2156C20.3342 10.5641 20.6401 11.0155 20.7432 11.5828C20.7943 11.8642 20.8114 12.1555 20.8121 12.4421C20.8176 14.4291 20.8147 16.416 20.8154 18.403C20.8154 18.803 20.7454 19.1894 20.5635 19.5449C20.3586 19.9463 20.0633 20.2671 19.6706 20.5016C19.2751 20.7378 18.8503 20.8363 18.3971 20.8363C16.1225 20.8366 13.8479 20.8322 11.5732 20.8399C11.0687 20.8417 10.6096 20.7207 10.1933 20.4414C9.65261 20.0783 9.32084 19.5719 9.20345 18.9309C9.17209 18.7589 9.16261 18.5809 9.16225 18.4056C9.1597 16.3318 9.16662 14.2584 9.15678 12.1847C9.15386 11.5933 9.30407 11.0596 9.67631 10.6075C10.0227 10.1864 10.4587 9.88709 11.0151 9.80251C11.1686 9.77917 11.3224 9.75584 11.4887 9.73068V9.73105ZM11.4912 10.9232C11.1456 10.9119 10.8608 11.0443 10.6403 11.2813C10.4171 11.5204 10.3275 11.8179 10.3286 12.1555C10.3358 14.2471 10.3318 16.3391 10.3333 18.4307C10.3333 18.5529 10.3267 18.6812 10.3606 18.7957C10.5163 19.3254 10.9487 19.6641 11.4959 19.6627C12.2875 19.6605 13.079 19.6627 13.8705 19.6627C15.3806 19.6627 16.8911 19.6605 18.4012 19.6641C18.8868 19.6652 19.2539 19.4651 19.4993 19.048C19.6203 18.8424 19.6429 18.6097 19.6429 18.3753C19.6429 16.3154 19.6437 14.2555 19.6415 12.1956C19.6415 12.0615 19.6324 11.9237 19.5999 11.7942C19.4697 11.2762 19.0191 10.9294 18.4938 10.9294C18.3939 11.3717 18.1984 11.4639 17.9392 11.4905C17.8164 11.5033 17.6669 11.4665 17.5622 11.4001C17.3978 11.2962 17.3147 11.1179 17.2987 10.9207H15.5687C15.545 11.2937 15.2763 11.4672 15.0692 11.4945C14.7079 11.5423 14.5227 11.3837 14.3721 10.9287H12.6437C12.6378 11.2452 12.3877 11.4967 12.0855 11.4978C11.7533 11.4993 11.5029 11.2638 11.4916 10.9225L11.4912 10.9232Z" fill="white"/>
<path d="M14.4098 14.6978C14.4098 14.1924 14.4032 13.6871 14.4123 13.1822C14.4174 12.8942 14.6526 12.7075 14.8487 12.6776C15.1779 12.6277 15.4488 12.7888 15.5327 13.0692C15.5556 13.1454 15.5717 13.2267 15.5717 13.3058C15.5742 14.2435 15.5746 15.1812 15.5724 16.1189C15.5717 16.4277 15.4178 16.6428 15.1276 16.7292C14.7995 16.8269 14.436 16.6184 14.42 16.2669C14.3963 15.7448 14.4138 15.2206 14.4138 14.6974C14.4123 14.6974 14.4109 14.6974 14.4094 14.6974L14.4098 14.6978Z" fill="white"/>
<path d="M14.9803 17.3509C15.304 17.3079 15.5749 17.6079 15.5654 17.9477C15.5563 18.2685 15.2227 18.5088 14.9748 18.5051C14.627 18.4997 14.3933 18.2076 14.3919 17.9218C14.3904 17.6371 14.6365 17.2962 14.9803 17.3512V17.3509Z" fill="white"/>
</svg>
