<svg width="30" height="30" viewBox="0 0 30 30" fill="none" xmlns="http://www.w3.org/2000/svg">
<path d="M7.88889 15.8889H13.2222C13.7111 15.8889 14.1111 15.4889 14.1111 15V7.88889C14.1111 7.4 13.7111 7 13.2222 7H7.88889C7.4 7 7 7.4 7 7.88889V15C7 15.4889 7.4 15.8889 7.88889 15.8889ZM7.88889 23H13.2222C13.7111 23 14.1111 22.6 14.1111 22.1111V18.5556C14.1111 18.0667 13.7111 17.6667 13.2222 17.6667H7.88889C7.4 17.6667 7 18.0667 7 18.5556V22.1111C7 22.6 7.4 23 7.88889 23ZM16.7778 23H22.1111C22.6 23 23 22.6 23 22.1111V15C23 14.5111 22.6 14.1111 22.1111 14.1111H16.7778C16.2889 14.1111 15.8889 14.5111 15.8889 15V22.1111C15.8889 22.6 16.2889 23 16.7778 23ZM15.8889 7.88889V11.4444C15.8889 11.9333 16.2889 12.3333 16.7778 12.3333H22.1111C22.6 12.3333 23 11.9333 23 11.4444V7.88889C23 7.4 22.6 7 22.1111 7H16.7778C16.2889 7 15.8889 7.4 15.8889 7.88889Z" fill="#FCFCFC"/>
</svg>
