<svg width="32" height="32" viewBox="0 0 32 32" fill="none" xmlns="http://www.w3.org/2000/svg">
<path d="M0 8C0 3.58172 3.58172 0 8 0H24C28.4183 0 32 3.58172 32 8V24C32 28.4183 28.4183 32 24 32H8C3.58172 32 0 28.4183 0 24V8Z" fill="#F6F7F9"/>
<path d="M17.7281 9.23796C18.3491 8.56515 18.6596 8.22875 18.9895 8.03252C19.7856 7.55905 20.7659 7.54432 21.5753 7.99368C21.9107 8.17991 22.2308 8.50685 22.8709 9.16072C23.5109 9.81458 23.831 10.1415 24.0133 10.4842C24.4532 11.311 24.4388 12.3124 23.9753 13.1257C23.7832 13.4627 23.4539 13.7799 22.7952 14.4143L14.9588 21.962C13.7107 23.1641 13.0867 23.7652 12.3067 24.0699C11.5268 24.3745 10.6693 24.3521 8.95446 24.3072L8.72114 24.3011C8.19908 24.2875 7.93805 24.2807 7.78631 24.1085C7.63458 23.9363 7.65529 23.6704 7.69672 23.1386L7.71922 22.8498C7.83583 21.353 7.89414 20.6047 8.18641 19.9319C8.47869 19.2592 8.98285 18.713 9.99118 17.6205L17.7281 9.23796Z" stroke="#14181F" stroke-width="1.5" stroke-linejoin="round"/>
<path d="M16.8333 9.3335L22.6666 15.1668" stroke="#14181F" stroke-width="1.5" stroke-linejoin="round"/>
<path d="M17.6667 24.3335L24.3333 24.3335" stroke="#14181F" stroke-width="1.5" stroke-linecap="round" stroke-linejoin="round"/>
</svg>
