<svg width="32" height="32" viewBox="0 0 32 32" fill="none" xmlns="http://www.w3.org/2000/svg">
<path d="M0 8C0 3.58172 3.58172 0 8 0H24C28.4183 0 32 3.58172 32 8V24C32 28.4183 28.4183 32 24 32H8C3.58172 32 0 28.4183 0 24V8Z" fill="#F6F7F9"/>
<path d="M23.9526 15.2041C24.206 15.5594 24.3327 15.737 24.3327 16C24.3327 16.2629 24.206 16.4405 23.9527 16.7958C22.8143 18.3921 19.907 21.8333 15.9993 21.8333C12.0917 21.8333 9.18443 18.3921 8.04605 16.7958C7.79269 16.4405 7.66602 16.2629 7.66602 16C7.66602 15.737 7.79269 15.5594 8.04605 15.2041C9.18443 13.6078 12.0917 10.1666 15.9993 10.1666C19.907 10.1666 22.8143 13.6078 23.9526 15.2041Z" stroke="#14181F" stroke-width="1.5"/>
<path d="M18.5 16C18.5 14.6193 17.3807 13.5 16 13.5C14.6193 13.5 13.5 14.6193 13.5 16C13.5 17.3807 14.6193 18.5 16 18.5C17.3807 18.5 18.5 17.3807 18.5 16Z" stroke="#14181F" stroke-width="1.5"/>
</svg>
