<svg width="14" height="20" viewBox="0 0 14 20" fill="none" xmlns="http://www.w3.org/2000/svg">
<path d="M5.22656 8.74219C5.71094 9.22656 6.29688 9.46875 6.98438 9.46875C7.67188 9.46875 8.25781 9.22656 8.74219 8.74219C9.22656 8.25781 9.46875 7.67188 9.46875 6.98438C9.46875 6.29688 9.22656 5.71094 8.74219 5.22656C8.25781 4.74219 7.67188 4.5 6.98438 4.5C6.29688 4.5 5.71094 4.74219 5.22656 5.22656C4.74219 5.71094 4.5 6.29688 4.5 6.98438C4.5 7.67188 4.74219 8.25781 5.22656 8.74219ZM2.03906 2.03906C3.39844 0.679688 5.04688 0 6.98438 0C8.92188 0 10.5703 0.679688 11.9297 2.03906C13.2891 3.39844 13.9688 5.04688 13.9688 6.98438C13.9688 7.95312 13.7266 9.0625 13.2422 10.3125C12.7578 11.5625 12.1719 12.7344 11.4844 13.8281C10.7969 14.9219 10.1172 15.9453 9.44531 16.8984C8.77344 17.8516 8.20312 18.6094 7.73438 19.1719L6.98438 19.9688C6.79688 19.75 6.54688 19.4609 6.23438 19.1016C5.92188 18.7422 5.35938 18.0234 4.54688 16.9453C3.73438 15.8672 3.02344 14.8203 2.41406 13.8047C1.80469 12.7891 1.25 11.6406 0.75 10.3594C0.25 9.07812 0 7.95312 0 6.98438C0 5.04688 0.679688 3.39844 2.03906 2.03906Z" fill="#9CA3AF"/>
</svg>
