<svg width="30" height="30" viewBox="0 0 30 30" fill="none" xmlns="http://www.w3.org/2000/svg">
<path fill-rule="evenodd" clip-rule="evenodd" d="M14.6 18.2C16.0852 18.2 17.5096 17.61 18.5598 16.5598C19.61 15.5096 20.2 14.0852 20.2 12.6C20.2 11.1148 19.61 9.69041 18.5598 8.6402C17.5096 7.59 16.0852 7 14.6 7C13.1148 7 11.6904 7.59 10.6402 8.6402C9.59 9.69041 9 11.1148 9 12.6C9 14.0852 9.59 15.5096 10.6402 16.5598C11.6904 17.61 13.1148 18.2 14.6 18.2ZM14.6 10.2C14.3728 10.2 14.2208 10.472 13.9168 11.0184L13.8384 11.1592C13.752 11.3144 13.7088 11.3912 13.6416 11.4424C13.5736 11.4936 13.4896 11.5128 13.3216 11.5504L13.1696 11.5856C12.5792 11.7192 12.284 11.7856 12.2136 12.0112C12.1432 12.2368 12.3448 12.4728 12.7472 12.9432L12.8512 13.0648C12.9656 13.1984 13.0232 13.2648 13.0488 13.348C13.0744 13.4312 13.0656 13.52 13.0488 13.6984L13.0328 13.8608C12.972 14.4888 12.9416 14.8032 13.1248 14.9424C13.3088 15.0816 13.5856 14.9544 14.1384 14.7L14.2808 14.6344C14.4384 14.5624 14.5168 14.5264 14.6 14.5264C14.6832 14.5264 14.7616 14.5624 14.9192 14.6344L15.0616 14.7C15.6144 14.9552 15.8912 15.0816 16.0752 14.9424C16.2592 14.8032 16.228 14.4888 16.1672 13.8608L16.1512 13.6984C16.1344 13.52 16.1256 13.4312 16.1512 13.348C16.1768 13.2648 16.2344 13.1984 16.3488 13.0648L16.4528 12.9432C16.8552 12.4728 17.0568 12.2376 16.9864 12.0112C16.916 11.7856 16.6208 11.7192 16.0304 11.5856L15.8784 11.5504C15.7104 11.5128 15.6264 11.4944 15.5584 11.4424C15.4912 11.3912 15.448 11.3144 15.3616 11.1592L15.2832 11.0184C14.9792 10.472 14.8272 10.2 14.6 10.2Z" fill="white"/>
<path d="M10.6743 18.1528L10.3711 19.2584C9.86873 21.092 9.61753 22.0088 9.95273 22.5104C10.0703 22.6864 10.2279 22.8272 10.4111 22.9208C10.9327 23.1864 11.7391 22.7664 13.3511 21.9264C13.8871 21.6464 14.1559 21.5072 14.4407 21.4768C14.5466 21.4662 14.6533 21.4662 14.7591 21.4768C15.0439 21.5072 15.3119 21.6472 15.8487 21.9264C17.4607 22.7664 18.2671 23.1864 18.7887 22.9208C18.9719 22.8272 19.1295 22.6864 19.2471 22.5104C19.5831 22.0088 19.3311 21.092 18.8287 19.2584L18.5255 18.1528C17.3784 18.9663 16.0063 19.4022 14.5999 19.4C13.1936 19.4022 11.8215 18.9663 10.6743 18.1528Z" fill="white"/>
</svg>
