<svg width="158" height="44" viewBox="0 0 158 44" fill="none" xmlns="http://www.w3.org/2000/svg">
<path d="M30.1531 36.2055V39.1773C30.1531 39.653 30.3468 39.8706 30.8217 39.8706H32.8869C34.5334 39.8706 36.1799 39.2613 37.8827 36.7619C38.6075 35.7081 39.0543 35.3755 39.6948 35.3755C40.9508 35.3755 41.0882 36.6252 40.3103 40.0695C39.751 42.5098 38.9418 43.7905 37.9639 43.7905C37.3796 43.7905 37.1297 43.29 36.1768 43.29H27.0225C23.6482 43.29 22.1954 42.9574 22.1954 42.0684C22.1954 41.7046 22.4454 41.4311 22.864 40.9866C23.6732 40.1255 23.8982 39.8488 23.8982 38.7079V27.8775C23.8982 26.7398 23.6732 26.46 22.864 25.5989C22.4454 25.1575 22.1954 24.8777 22.1954 24.5171C22.1954 23.628 23.6451 23.2923 27.0225 23.2923H35.3395C36.2861 23.2923 36.5361 22.7949 37.1266 22.7949C38.1045 22.7949 38.9137 24.0726 39.4698 26.5128C40.254 29.9572 40.1103 31.2068 38.8575 31.2068C38.217 31.2068 37.7702 30.8742 37.0422 29.8204C35.3426 27.3211 33.6929 26.7118 32.0464 26.7118H30.8186C30.3437 26.7118 30.15 26.9356 30.15 27.405V31.1509C30.15 31.6265 30.3437 31.8441 30.8186 31.8441H31.4591C32.6026 31.8441 32.8837 31.5954 33.7492 30.7903C34.196 30.3737 34.4772 30.1219 34.8927 30.1219C35.7581 30.1219 36.0643 31.2037 36.0643 33.6751C36.0643 36.1464 35.7581 37.2282 34.8927 37.2282C34.474 37.2282 34.196 36.9795 33.7492 36.563C32.8837 35.7579 32.6057 35.5061 31.4591 35.5061H30.8186C30.3437 35.5061 30.15 35.7299 30.15 36.1993" fill="#DC1213"/>
<path d="M42.0599 40.8378C42.8688 39.9594 43.0937 39.6772 43.0937 38.5166V27.4689C43.0937 26.3084 42.8688 26.023 42.0599 25.1446C41.6413 24.6912 41.3915 24.4058 41.3915 24.0411C41.3915 23.1374 42.8407 22.7949 46.217 22.7949H52.9978C57.461 22.7949 60.5875 25.3983 60.5875 29.3652C60.5875 31.6578 59.5536 34.0392 57.5172 35.4852C55.9837 36.5887 54.3377 37.0992 50.015 37.0992C49.5402 37.0992 49.3466 37.3275 49.3466 37.8063V38.5166C49.3466 39.674 49.5684 39.9594 50.3773 40.8378C50.7989 41.2912 51.0488 41.5766 51.0488 41.9413C51.0488 42.8482 49.5996 43.1907 46.2233 43.1907C42.847 43.1907 41.3977 42.8514 41.3977 41.9413C41.3977 41.5735 41.6476 41.2912 42.0661 40.8378M53.7005 29.7901C53.7005 27.1867 52.3606 26.2766 50.7146 26.2766H50.0181C49.5434 26.2766 49.3497 26.505 49.3497 26.9838V32.904C49.3497 33.386 49.5434 33.6111 50.0181 33.6111H50.7458C52.5886 33.6111 53.7036 32.1652 53.7036 29.7869" fill="#DC1213"/>
<path d="M75.2272 25.7131C74.8129 25.269 74.5674 24.9875 74.5674 24.6247C74.5674 23.6488 76.6236 23.3955 78.0751 23.3955C79.5267 23.3955 81.5829 23.6488 81.5829 24.6247C81.5829 24.9906 81.3374 25.269 80.9231 25.7131C80.1282 26.5795 79.9073 26.8579 79.9073 28.0057V36.7789C79.9073 41.361 76.9765 43.7912 71.4648 43.7912C65.9531 43.7912 62.8566 41.3047 62.8566 36.7789V28.0057C62.8566 26.861 62.6387 26.5795 61.8439 25.7131C61.4326 25.269 61.1871 24.9875 61.1871 24.6247C61.1871 23.7333 62.6111 23.3955 65.9285 23.3955C69.246 23.3955 70.67 23.7302 70.67 24.6247C70.67 24.9906 70.4244 25.269 70.0132 25.7131C69.2153 26.5795 68.9974 26.8579 68.9974 28.0057V36.7789C68.9974 38.6775 70.5595 40.0755 72.6709 40.0755C74.7822 40.0755 76.2307 38.7087 76.2307 36.7789V28.0057C76.2307 26.861 76.0129 26.5795 75.218 25.7131" fill="#DC1213"/>
<path d="M83.4511 40.9139C84.2601 40.0613 84.4849 39.7874 84.4849 38.6579V27.9351C84.4849 26.8087 84.2601 26.5317 83.4511 25.6792C83.0326 25.2421 82.7827 24.9651 82.7827 24.6081C82.7827 23.7279 84.2319 23.3955 87.6083 23.3955H93.858C97.9028 23.3955 100.386 25.1837 100.386 27.9044C100.386 29.5786 99.4644 31.1206 97.9871 32.247C100.442 33.0164 101.979 34.6384 101.979 37.1406C101.979 39.0949 101.029 40.7446 99.1864 41.9264C97.7934 42.8343 95.4197 43.1914 90.844 43.1914H87.6083C84.2351 43.1914 82.7827 42.862 82.7827 41.9818C82.7827 41.6217 83.0326 41.3509 83.4511 40.9108M91.4031 31.4253C93.2178 31.4253 94.2766 30.4896 94.2766 28.7846C94.2766 27.3288 93.4957 26.7779 91.4031 26.7779C90.9284 26.7779 90.7347 26.9964 90.7347 27.4643V30.7359C90.7347 31.2037 90.9284 31.4222 91.4031 31.4222M95.0855 37.2237C95.0855 35.574 93.8861 34.6107 92.0996 34.6107H91.4031C90.9284 34.6107 90.7347 34.8323 90.7347 35.297V39.1165C90.7347 39.5874 90.9284 39.8028 91.4031 39.8028H92.1308C93.9424 39.8028 95.0886 38.8703 95.0886 37.2206" fill="#DC1213"/>
<path d="M103.248 25.6906C102.833 25.2514 102.585 24.973 102.585 24.6142C102.585 23.7296 104.024 23.3955 107.376 23.3955C110.729 23.3955 112.168 23.7265 112.168 24.6142C112.168 24.973 111.92 25.2483 111.501 25.6906C110.698 26.5474 110.477 26.8226 110.477 27.9578V39.2011C110.477 39.6744 110.67 39.8909 111.141 39.8909H111.529C113.163 39.8909 114.798 39.2846 116.488 36.7978C117.207 35.7493 117.651 35.4183 118.286 35.4183C119.533 35.4183 119.67 36.6617 118.897 40.0888C118.342 42.5169 117.539 43.7912 116.568 43.7912C115.985 43.7912 115.737 43.2933 114.794 43.2933H107.37C104.021 43.2933 102.579 42.9623 102.579 42.0777C102.579 41.7158 102.827 41.4436 103.242 41.0013C104.045 40.1445 104.269 39.8692 104.269 38.7341V27.9578C104.269 26.8257 104.045 26.5474 103.242 25.6906" fill="#DC1213"/>
<path d="M121.67 38.6555V27.9344C121.67 26.8082 121.447 26.5312 120.642 25.6788C120.226 25.2419 119.975 24.9649 119.975 24.6079C119.975 23.7278 121.419 23.3955 124.772 23.3955C128.126 23.3955 129.573 23.7248 129.573 24.6079C129.573 24.9649 129.324 25.2388 128.905 25.6788C128.101 26.5312 127.881 26.8051 127.881 27.9344V38.6555C127.881 39.7818 128.101 40.0587 128.905 40.9111C129.324 41.3512 129.573 41.625 129.573 41.982C129.573 42.859 128.132 43.1914 124.772 43.1914C121.413 43.1914 119.975 42.8621 119.975 41.982C119.975 41.622 120.226 41.3512 120.642 40.9111C121.447 40.0587 121.67 39.7849 121.67 38.6555Z" fill="#DC1213"/>
<path d="M1.26035 40.5942C2.05973 39.7277 2.28195 39.4493 2.28195 38.3044V27.4059C2.28195 26.2609 2.05973 25.9794 1.26035 25.1129C0.846767 24.6656 0.599854 24.384 0.599854 24.0243C0.599854 23.1328 2.03195 22.7949 5.36836 22.7949H12.069C16.4795 22.7949 19.569 25.3632 19.569 29.1921C19.569 31.679 18.2449 33.9969 16.177 35.0574C16.9764 35.4797 17.3066 35.8426 17.7202 36.7904L18.3282 38.1042C18.9609 39.5557 19.7356 39.196 20.4239 39.6683C20.9177 40.003 21.3344 40.7319 20.5906 41.711C19.6801 42.9122 18.1646 43.1907 16.7017 43.1907C14.1369 43.1907 12.927 42.3241 11.9332 39.7246L11.1585 37.685C10.7727 36.6496 10.1122 36.3431 9.61527 36.3431H9.11836C8.64923 36.3431 8.45787 36.5683 8.45787 37.0406V38.2982C8.45787 39.44 8.677 39.7215 9.47639 40.588C9.89305 41.0353 10.14 41.3169 10.14 41.6766C10.14 42.5713 8.70787 42.9091 5.37145 42.9091C2.03504 42.9091 0.602943 42.5744 0.602943 41.6766C0.602943 41.3137 0.849856 41.0353 1.26344 40.588M12.7603 29.6894C12.7603 27.1212 11.4363 26.2234 9.80972 26.2234H9.12145C8.65231 26.2234 8.46095 26.4486 8.46095 26.921V32.2045C8.46095 32.68 8.65231 32.9021 9.12145 32.9021H9.84058C11.6616 32.9021 12.7634 32.0356 12.7634 29.6863" fill="#DC1213"/>
<path d="M0.671409 18.6488C1.48022 17.7704 1.70506 17.4882 1.70506 16.3245V5.2768C1.70506 4.11622 1.48022 3.83084 0.671409 2.95248C0.252951 2.5022 0 2.21681 0 1.84898C0 0.942076 1.45211 0.599609 4.82788 0.599609H11.0766C15.1207 0.599609 17.6033 2.44195 17.6033 5.24509C17.6033 6.9701 16.6821 8.55877 15.205 9.71935C17.6596 10.5121 19.196 12.1832 19.196 14.7612C19.196 16.7748 18.2466 18.4744 16.4042 19.6921C15.0114 20.6275 12.6381 20.9953 8.06312 20.9953H4.82788C1.45524 20.9953 0 20.656 0 19.7491C0 19.3781 0.252951 19.0991 0.671409 18.6456M8.62211 8.87269C10.4365 8.87269 11.4951 7.90872 11.4951 6.15199C11.4951 4.65212 10.7144 4.08451 8.62211 4.08451C8.14744 4.08451 7.95382 4.30965 7.95382 4.79164V8.16239C7.95382 8.64438 8.14744 8.86952 8.62211 8.86952M12.3039 14.8468C12.3039 13.1472 11.1048 12.1547 9.3185 12.1547H8.62211C8.14744 12.1547 7.95382 12.383 7.95382 12.8618V16.797C7.95382 17.2821 8.14744 17.5041 8.62211 17.5041H9.34973C11.161 17.5041 12.307 16.5433 12.307 14.8436" fill="#DC1213"/>
<path d="M33.6491 3.51782C33.2226 3.07369 32.9699 2.7922 32.9699 2.42939C32.9699 1.45355 35.0865 1.2002 36.5808 1.2002C38.075 1.2002 40.1916 1.45355 40.1916 2.42939C40.1916 2.79533 39.9389 3.07369 39.5124 3.51782C38.6942 4.38419 38.4668 4.66256 38.4668 5.81043V14.5836C38.4668 19.1657 35.4498 21.5959 29.776 21.5959C24.1022 21.5959 20.9146 19.1094 20.9146 14.5836V5.81043C20.9146 4.66569 20.6903 4.38419 19.8721 3.51782C19.4488 3.07369 19.196 2.7922 19.196 2.42939C19.196 1.53799 20.6619 1.2002 24.0769 1.2002C27.4919 1.2002 28.9578 1.53487 28.9578 2.42939C28.9578 2.79533 28.705 3.07369 28.2817 3.51782C27.4603 4.38419 27.236 4.66256 27.236 5.81043V14.5836C27.236 16.4821 28.844 17.8802 31.0175 17.8802C33.191 17.8802 34.6821 16.5134 34.6821 14.5836V5.81043C34.6821 4.66569 34.4578 4.38419 33.6396 3.51782" fill="#DC1213"/>
<path d="M41.4713 18.399C42.2942 17.5324 42.523 17.254 42.523 16.1091V5.21055C42.523 4.06564 42.2942 3.7841 41.4713 2.91759C41.0456 2.47026 40.7914 2.18872 40.7914 1.82898C40.7914 0.93745 42.2656 0.599609 45.7001 0.599609H52.5978C57.138 0.599609 60.3184 3.16785 60.3184 6.99674C60.3184 9.48364 58.9554 11.8016 56.8267 12.8621C57.6496 13.2844 57.9895 13.6472 58.4153 14.5951L59.0412 15.9089C59.6925 17.3604 60.49 17.0007 61.1985 17.473C61.7068 17.8077 62.1358 18.5366 61.3701 19.5157C60.4328 20.7169 58.8728 20.9953 57.3668 20.9953C54.7265 20.9953 53.4811 20.1288 52.458 17.5293L51.6606 15.4898C51.2634 14.4543 50.5835 14.1478 50.072 14.1478H49.5604C49.0775 14.1478 48.8805 14.373 48.8805 14.8453V16.1029C48.8805 17.2446 49.1061 17.5262 49.929 18.3927C50.3579 18.84 50.6121 19.1216 50.6121 19.4813C50.6121 20.376 49.1379 20.7138 45.7033 20.7138C42.2688 20.7138 40.7946 20.3791 40.7946 19.4813C40.7946 19.1184 41.0487 18.84 41.4745 18.3927M53.3095 7.49412C53.3095 4.92588 51.9465 4.0281 50.2721 4.0281H49.5636C49.0807 4.0281 48.8837 4.25332 48.8837 4.72568V10.0092C48.8837 10.4847 49.0807 10.7068 49.5636 10.7068H50.3039C52.1784 10.7068 53.3127 9.84025 53.3127 7.49099" fill="#DC1213"/>
<path d="M73.156 14.134C72.7374 13.6798 72.4876 13.3939 72.4876 12.9969C72.4876 12.117 73.7994 11.7803 77.0352 11.7803C80.271 11.7803 81.5829 12.1202 81.5829 12.9969C81.5829 13.3939 81.3299 13.6798 80.9113 14.134C80.1586 14.9567 80.1586 15.2965 80.1586 16.4623V20.1214C80.1586 20.8297 79.712 21.3125 79.0998 21.3125C78.8749 21.3125 78.6531 21.2299 78.4001 21.1156L77.3132 20.5756C77.004 20.4327 76.6417 20.4327 76.3637 20.5756C75.1362 21.1696 73.5745 21.5952 71.7879 21.5952C65.8441 21.5952 61.1871 16.9419 61.1871 10.729C61.1871 4.51604 65.8441 0.599609 71.2288 0.599609C75.9451 0.599609 79.8213 3.6076 79.8213 7.46686C79.8213 8.82633 78.8999 10.1922 77.004 10.1922C73.0716 10.1922 73.7119 4.3731 71.0914 4.3731C69.6671 4.3731 68.1054 6.1328 68.1054 9.62359C68.1054 13.5083 70.0294 17.3103 73.2653 17.7677C73.6869 17.8249 73.9056 17.6248 73.9056 17.1992V16.4623C73.9056 15.2997 73.9056 14.9567 73.1528 14.134" fill="#DC1213"/>
<path d="M89.5407 13.7937V16.8505C89.5407 17.3397 89.7344 17.5635 90.2093 17.5635H92.2744C93.921 17.5635 95.5675 16.9368 97.2702 14.3661C97.9951 13.2822 98.4419 12.94 99.0823 12.94C100.338 12.94 100.476 14.2254 99.6978 17.7681C99.1386 20.2781 98.3294 21.5955 97.3515 21.5955C96.7672 21.5955 96.5173 21.0807 95.5644 21.0807H86.4101C83.0358 21.0807 81.583 20.7386 81.583 19.8241C81.583 19.45 81.8329 19.1686 82.2516 18.7114C83.0608 17.8257 83.2858 17.5411 83.2858 16.3677V5.22781C83.2858 4.05755 83.0608 3.76977 82.2516 2.88408C81.8329 2.43005 81.583 2.14228 81.583 1.77138C81.583 0.856915 83.0327 0.511592 86.4101 0.511592H94.727C95.6737 0.511592 95.9237 0 96.5142 0C97.4921 0 98.3013 1.31414 98.8574 3.82413C99.6416 7.36689 99.4979 8.65226 98.245 8.65226C97.6045 8.65226 97.1578 8.31013 96.4298 7.2262C94.7302 4.65547 93.0805 4.02877 91.434 4.02877H90.2061C89.7312 4.02877 89.5375 4.25898 89.5375 4.74179V8.59471C89.5375 9.08391 89.7312 9.30773 90.2061 9.30773H90.8466C91.9901 9.30773 92.2713 9.05194 93.1368 8.2238C93.5835 7.79535 93.8647 7.53636 94.2803 7.53636C95.1457 7.53636 95.4519 8.64906 95.4519 11.191C95.4519 13.733 95.1457 14.8457 94.2803 14.8457C93.8616 14.8457 93.5835 14.5899 93.1368 14.1614C92.2713 13.3333 91.9933 13.0743 90.8466 13.0743H90.2061C89.7312 13.0743 89.5375 13.3045 89.5375 13.7873" fill="#DC1213"/>
<path d="M102.039 18.399C102.839 17.5324 103.061 17.254 103.061 16.1091V5.21055C103.061 4.06564 102.839 3.7841 102.039 2.91759C101.626 2.47026 101.379 2.18872 101.379 1.82898C101.379 0.93745 102.811 0.599609 106.147 0.599609H112.848C117.258 0.599609 120.348 3.16785 120.348 6.99674C120.348 9.48364 119.024 11.8016 116.956 12.8621C117.755 13.2844 118.085 13.6472 118.499 14.5951L119.107 15.9089C119.74 17.3604 120.514 17.0007 121.203 17.473C121.697 17.8077 122.113 18.5366 121.369 19.5157C120.459 20.7169 118.943 20.9953 117.48 20.9953C114.916 20.9953 113.706 20.1288 112.712 17.5293L111.937 15.4898C111.551 14.4543 110.891 14.1478 110.394 14.1478H109.897C109.428 14.1478 109.237 14.373 109.237 14.8453V16.1029C109.237 17.2446 109.456 17.5262 110.255 18.3927C110.672 18.84 110.919 19.1216 110.919 19.4813C110.919 20.376 109.487 20.7138 106.15 20.7138C102.814 20.7138 101.382 20.3791 101.382 19.4813C101.382 19.1184 101.629 18.84 102.042 18.3927M113.539 7.49412C113.539 4.92588 112.215 4.0281 110.589 4.0281H109.9C109.431 4.0281 109.24 4.25332 109.24 4.72568V10.0092C109.24 10.4847 109.431 10.7068 109.9 10.7068H110.619C112.44 10.7068 113.542 9.84025 113.542 7.49099" fill="#DC1213"/>
<path d="M141.516 8.38746C141.735 9.81595 141.282 10.4681 140.405 10.6889L140.063 10.7821C139.833 10.8442 139.722 10.72 139.673 10.4405L139.185 7.23846C139.137 6.94173 139.21 6.78646 139.429 6.72435L139.771 6.64844C140.551 6.44486 141.272 6.83476 141.516 8.38746Z" fill="#DC1213"/>
<path d="M153.871 3.15989C153.246 1.35198 151.311 0.271037 149.42 0.0561115C145.637 -0.386383 142.127 1.90511 138.443 2.83118C135.642 3.52969 132.7 3.44435 129.827 3.0872C128.804 2.96077 127.765 2.80274 126.812 2.38869C126.313 2.17692 123.57 1.08016 124.495 2.65734C125.83 4.93619 127.238 7.56903 128.744 9.73093C129.016 10.1292 129.3 10.5717 129.243 11.0395C129.215 11.4251 128.971 11.738 128.732 12.0351C127.595 13.4447 126.342 14.355 124.978 15.5497C124.523 15.948 124.012 16.5169 124.223 17.0858C124.296 17.2723 124.438 17.4145 124.58 17.5568C124.823 17.8001 125.063 18.0119 125.319 18.2268C128.034 20.4741 131.772 21.457 135.229 20.7901C137.83 20.2907 140.176 18.938 142.607 17.9013C145.038 16.8614 147.797 16.1218 150.326 16.8899C151.364 17.2028 152.302 17.7717 153.312 18.1699C153.47 18.2395 153.653 18.2963 153.783 18.1984C153.868 18.1415 153.912 18.0119 153.94 17.9139C154.155 17.089 154.155 16.2198 154.155 15.3664C154.155 12.1488 154.155 8.93444 154.168 5.72952C154.168 4.86033 154.168 3.96586 153.871 3.15357M147.273 14.0263C146.891 14.7943 146.079 15.1072 145.255 15.2779C143.806 15.5624 143.039 15.221 142.199 13.8841L141.533 12.8315C141.205 12.3037 140.807 12.2057 140.523 12.2626L140.239 12.3195C139.983 12.3764 139.898 12.5186 139.955 12.7747L140.084 13.4858C140.214 14.1116 140.368 14.2412 140.908 14.6395C141.192 14.8386 141.363 14.9682 141.404 15.1673C141.505 15.6667 140.738 16.008 138.859 16.3905C136.984 16.7603 136.144 16.7318 136.043 16.2324C136.002 16.0333 136.1 15.8468 136.286 15.5497C136.643 14.9808 136.741 14.7943 136.611 14.1685L135.418 8.11898C135.292 7.47737 135.134 7.35094 134.594 6.95269C134.31 6.75357 134.14 6.62399 134.111 6.42487C134.01 5.92548 134.78 5.58412 136.656 5.21432L140.409 4.45893C142.897 3.97534 144.915 5.0563 145.328 7.17711C145.6 8.55832 145.117 9.99643 144.062 10.8214C144.561 10.9636 144.785 11.1216 145.129 11.6052L145.612 12.2753C146.124 13.0022 146.521 12.7178 146.963 12.9011C147.276 13.0433 147.589 13.4005 147.276 14.0263" fill="#DC1213"/>
<path d="M156.647 3.19632C156.678 15.4133 156.661 27.6303 156.661 39.8598V43.7908H155.278V21.2094C155.278 15.1998 155.26 9.2059 155.291 3.19632C154.629 2.94199 154.168 2.34857 154.168 1.65467C154.168 0.73471 154.967 0 155.967 0C156.968 0 157.767 0.73471 157.767 1.65467C157.767 2.34857 157.306 2.94199 156.643 3.19632" fill="#DC1213"/>
<path d="M130.176 32.9258C130.176 26.6834 134.872 22.7949 140.296 22.7949C145.049 22.7949 148.958 25.8034 148.958 29.66C148.958 31.5344 148.03 32.9512 146.144 32.9512C142.15 32.9512 142.801 26.5658 140.129 26.5658C138.722 26.5658 137.148 28.3258 137.148 31.8171C137.148 35.9883 139.367 38.571 143.053 38.571C144.822 38.571 146.541 37.5513 147.495 35.8739C147.75 35.4482 148.171 34.8541 148.902 34.8541C149.799 34.8541 149.969 35.8167 149.969 36.4997C149.969 38.2279 148.873 40.385 147.045 41.805C145.694 42.8565 143.557 43.7905 140.856 43.7905C134.869 43.7905 130.173 39.1365 130.173 32.9226" fill="#DC1213"/>
</svg>
