<svg width="127" height="35" viewBox="0 0 127 35" fill="none" xmlns="http://www.w3.org/2000/svg">
<path d="M24.0999 28.9377V31.3129C24.0999 31.6931 24.2548 31.867 24.6343 31.867H26.2849C27.6009 31.867 28.9169 31.38 30.2778 29.3824C30.8572 28.5402 31.2142 28.2743 31.7261 28.2743C32.73 28.2743 32.8399 29.2731 32.2181 32.026C31.7711 33.9764 31.1243 35 30.3427 35C29.8758 35 29.676 34.6 28.9144 34.6H21.5978C18.9009 34.6 17.7397 34.3342 17.7397 33.6236C17.7397 33.3329 17.9395 33.1143 18.2741 32.759C18.9209 32.0707 19.1007 31.8496 19.1007 30.9378V22.2815C19.1007 21.3722 18.9209 21.1486 18.2741 20.4603C17.9395 20.1075 17.7397 19.8839 17.7397 19.5957C17.7397 18.8851 18.8984 18.6168 21.5978 18.6168H28.2452C29.0018 18.6168 29.2016 18.2192 29.6735 18.2192C30.4551 18.2192 31.1019 19.2404 31.5464 21.1908C32.1731 23.9437 32.0583 24.9425 31.0569 24.9425C30.545 24.9425 30.1879 24.6766 29.6061 23.8344C28.2477 21.8368 26.9292 21.3498 25.6132 21.3498H24.6318C24.2523 21.3498 24.0974 21.5287 24.0974 21.9039V24.8978C24.0974 25.2779 24.2523 25.4518 24.6318 25.4518H25.1437C26.0577 25.4518 26.2824 25.2531 26.9741 24.6096C27.3312 24.2766 27.556 24.0754 27.8881 24.0754C28.5798 24.0754 28.8245 24.94 28.8245 26.9152C28.8245 28.8905 28.5798 29.7551 27.8881 29.7551C27.5535 29.7551 27.3312 29.5563 26.9741 29.2234C26.2824 28.5799 26.0602 28.3787 25.1437 28.3787H24.6318C24.2523 28.3787 24.0974 28.5575 24.0974 28.9327" fill="white"/>
<path d="M33.6165 32.64C34.263 31.938 34.4428 31.7124 34.4428 30.7849V21.955C34.4428 21.0274 34.263 20.7993 33.6165 20.0972C33.282 19.7348 33.0823 19.5067 33.0823 19.2153C33.0823 18.493 34.2406 18.2192 36.9391 18.2192H42.3586C45.9259 18.2192 48.4247 20.3 48.4247 23.4705C48.4247 25.3029 47.5984 27.2063 45.9708 28.362C44.7451 29.2439 43.4296 29.652 39.9746 29.652C39.5952 29.652 39.4404 29.8344 39.4404 30.2171V30.7849C39.4404 31.7099 39.6177 31.938 40.2642 32.64C40.6012 33.0025 40.8009 33.2306 40.8009 33.522C40.8009 34.2469 39.6426 34.5206 36.9441 34.5206C34.2456 34.5206 33.0873 34.2494 33.0873 33.522C33.0873 33.228 33.287 33.0025 33.6215 32.64M42.9203 23.8102C42.9203 21.7294 41.8494 21.002 40.5338 21.002H39.9771C39.5977 21.002 39.4429 21.1845 39.4429 21.5672V26.299C39.4429 26.6842 39.5977 26.8641 39.9771 26.8641H40.5588C42.0316 26.8641 42.9228 25.7084 42.9228 23.8076" fill="white"/>
<path d="M60.1256 20.5511C59.7945 20.1961 59.5983 19.9711 59.5983 19.6812C59.5983 18.9012 61.2417 18.6987 62.4018 18.6987C63.562 18.6987 65.2054 18.9012 65.2054 19.6812C65.2054 19.9736 65.0092 20.1961 64.6781 20.5511C64.0428 21.2435 63.8662 21.466 63.8662 22.3835V29.3955C63.8662 33.0577 61.5237 35.0001 57.1185 35.0001C52.7133 35.0001 50.2384 33.0127 50.2384 29.3955V22.3835C50.2384 21.4685 50.0642 21.2435 49.4289 20.5511C49.1003 20.1961 48.9041 19.9711 48.9041 19.6812C48.9041 18.9687 50.0422 18.6987 52.6936 18.6987C55.3451 18.6987 56.4832 18.9662 56.4832 19.6812C56.4832 19.9736 56.287 20.1961 55.9583 20.5511C55.3206 21.2435 55.1464 21.466 55.1464 22.3835V29.3955C55.1464 30.9129 56.3949 32.0303 58.0825 32.0303C59.77 32.0303 60.9277 30.9379 60.9277 29.3955V22.3835C60.9277 21.4685 60.7536 21.2435 60.1183 20.5511" fill="white"/>
<path d="M66.6985 32.7003C67.3451 32.0189 67.5248 31.8 67.5248 30.8972V22.327C67.5248 21.4267 67.3451 21.2054 66.6985 20.524C66.364 20.1747 66.1643 19.9533 66.1643 19.6679C66.1643 18.9644 67.3226 18.6987 70.0211 18.6987H75.0163C78.249 18.6987 80.2336 20.1279 80.2336 22.3024C80.2336 23.6406 79.4972 24.873 78.3164 25.7733C80.2786 26.3883 81.5068 27.6847 81.5068 29.6845C81.5068 31.2465 80.7479 32.565 79.275 33.5096C78.1617 34.2353 76.2645 34.5206 72.6073 34.5206H70.0211C67.3251 34.5206 66.1643 34.2574 66.1643 33.5539C66.1643 33.2661 66.364 33.0496 66.6985 32.6979M73.0542 25.1165C74.5045 25.1165 75.3508 24.3687 75.3508 23.006C75.3508 21.8424 74.7267 21.4021 73.0542 21.4021C72.6747 21.4021 72.52 21.5768 72.52 21.9507V24.5655C72.52 24.9394 72.6747 25.1141 73.0542 25.1141M75.9974 29.7509C75.9974 28.4325 75.0388 27.6625 73.6109 27.6625H73.0542C72.6747 27.6625 72.52 27.8396 72.52 28.2111V31.2638C72.52 31.6401 72.6747 31.8123 73.0542 31.8123H73.6358C75.0837 31.8123 75.9999 31.067 75.9999 29.7485" fill="white"/>
<path d="M82.5217 20.5331C82.1896 20.182 81.9913 19.9595 81.9913 19.6728C81.9913 18.9657 83.1414 18.6987 85.8208 18.6987C88.5003 18.6987 89.6504 18.9633 89.6504 19.6728C89.6504 19.9595 89.4521 20.1796 89.1175 20.5331C88.4755 21.2179 88.2995 21.4379 88.2995 22.3452V31.3314C88.2995 31.7097 88.4532 31.8827 88.83 31.8827H89.1398C90.4461 31.8827 91.7523 31.3982 93.1032 29.4106C93.6783 28.5725 94.0327 28.308 94.5408 28.308C95.5373 28.308 95.6463 29.3018 95.0292 32.0409C94.5855 33.9816 93.9435 35.0001 93.1677 35.0001C92.7017 35.0001 92.5034 34.6021 91.7498 34.6021H85.8159C83.1389 34.6021 81.9863 34.3376 81.9863 33.6305C81.9863 33.3413 82.1846 33.1237 82.5168 32.7702C83.1587 32.0854 83.3372 31.8654 83.3372 30.9581V22.3452C83.3372 21.4403 83.1587 21.2179 82.5168 20.5331" fill="white"/>
<path d="M97.2453 30.8953V22.3265C97.2453 21.4263 97.0666 21.205 96.4239 20.5237C96.0913 20.1744 95.8903 19.9531 95.8903 19.6678C95.8903 18.9644 97.0443 18.6987 99.7246 18.6987C102.405 18.6987 103.561 18.9619 103.561 19.6678C103.561 19.9531 103.363 20.172 103.028 20.5237C102.385 21.205 102.209 21.4238 102.209 22.3265V30.8953C102.209 31.7955 102.385 32.0169 103.028 32.6982C103.363 33.0499 103.561 33.2688 103.561 33.5541C103.561 34.255 102.41 34.5206 99.7246 34.5206C97.0393 34.5206 95.8903 34.2575 95.8903 33.5541C95.8903 33.2663 96.0913 33.0499 96.4239 32.6982C97.0666 32.0169 97.2453 31.798 97.2453 30.8953Z" fill="white"/>
<path d="M1.00739 32.4454C1.6463 31.7529 1.82391 31.5303 1.82391 30.6153V21.9045C1.82391 20.9895 1.6463 20.7644 1.00739 20.0719C0.676838 19.7144 0.479492 19.4893 0.479492 19.2018C0.479492 18.4893 1.6241 18.2192 4.29074 18.2192H9.64622C13.1713 18.2192 15.6406 20.2719 15.6406 23.3322C15.6406 25.3198 14.5823 27.1725 12.9296 28.0201C13.5685 28.3576 13.8324 28.6476 14.163 29.4052L14.6489 30.4553C15.1546 31.6153 15.7738 31.3278 16.3239 31.7054C16.7186 31.9729 17.0516 32.5554 16.4571 33.338C15.7294 34.2981 14.5182 34.5206 13.3489 34.5206C11.299 34.5206 10.332 33.828 9.53768 31.7504L8.91851 30.1202C8.61016 29.2926 8.08226 29.0476 7.6851 29.0476H7.28794C6.91298 29.0476 6.76004 29.2276 6.76004 29.6052V30.6103C6.76004 31.5228 6.93518 31.7479 7.57409 32.4404C7.90711 32.7979 8.10446 33.023 8.10446 33.3105C8.10446 34.0255 6.95985 34.2956 4.29321 34.2956C1.62657 34.2956 0.481961 34.028 0.481961 33.3105C0.481961 33.0205 0.679307 32.7979 1.00986 32.4404M10.1988 23.7297C10.1988 21.677 9.14052 20.9595 7.84051 20.9595H7.2904C6.91544 20.9595 6.7625 21.1395 6.7625 21.517V25.7399C6.7625 26.1199 6.91544 26.2974 7.2904 26.2974H7.86517C9.3206 26.2974 10.2013 25.6048 10.2013 23.7272" fill="white"/>
<path d="M0.536626 14.9054C1.18307 14.2033 1.36278 13.9778 1.36278 13.0477V4.21775C1.36278 3.29016 1.18307 3.06206 0.536626 2.36003C0.202172 2.00014 0 1.77204 0 1.47805C0 0.75321 1.16061 0.479492 3.8587 0.479492H8.85304C12.0853 0.479492 14.0695 1.95199 14.0695 4.19241C14.0695 5.57113 13.3332 6.84087 12.1527 7.76847C14.1145 8.40207 15.3424 9.7377 15.3424 11.7982C15.3424 13.4075 14.5837 14.766 13.1111 15.7392C11.9979 16.4869 10.101 16.7808 6.44448 16.7808H3.8587C1.1631 16.7808 0 16.5097 0 15.7848C0 15.4883 0.202172 15.2653 0.536626 14.9028M6.89125 7.09178C8.34138 7.09178 9.1875 6.32132 9.1875 4.91725C9.1875 3.71848 8.56352 3.26481 6.89125 3.26481C6.51187 3.26481 6.35712 3.44476 6.35712 3.82999V6.52407C6.35712 6.9093 6.51187 7.08924 6.89125 7.08924M9.83394 11.8666C9.83394 10.5082 8.87551 9.7149 7.44784 9.7149H6.89125C6.51187 9.7149 6.35712 9.89738 6.35712 10.2801V13.4253C6.35712 13.813 6.51187 13.9905 6.89125 13.9905H7.4728C8.92043 13.9905 9.83644 13.2225 9.83644 11.8641" fill="white"/>
<path d="M26.8942 2.81135C26.5533 2.45638 26.3513 2.2314 26.3513 1.94142C26.3513 1.16148 28.043 0.958984 29.2373 0.958984C30.4316 0.958984 32.1233 1.16148 32.1233 1.94142C32.1233 2.2339 31.9213 2.45638 31.5805 2.81135C30.9265 3.50381 30.7447 3.72629 30.7447 4.64373V11.6557C30.7447 15.318 28.3334 17.2603 23.7986 17.2603C19.2638 17.2603 16.7161 15.273 16.7161 11.6557V4.64373C16.7161 3.72879 16.5368 3.50381 15.8829 2.81135C15.5445 2.45638 15.3425 2.2314 15.3425 1.94142C15.3425 1.22897 16.5141 0.958984 19.2436 0.958984C21.973 0.958984 23.1446 1.22647 23.1446 1.94142C23.1446 2.2339 22.9426 2.45638 22.6043 2.81135C21.9478 3.50381 21.7685 3.72629 21.7685 4.64373V11.6557C21.7685 13.1731 23.0537 14.2905 24.7909 14.2905C26.528 14.2905 27.7198 13.1981 27.7198 11.6557V4.64373C27.7198 3.72879 27.5406 3.50381 26.8866 2.81135" fill="white"/>
<path d="M33.1461 14.7057C33.8038 14.0131 33.9866 13.7906 33.9866 12.8755V4.1648C33.9866 3.24973 33.8038 3.0247 33.1461 2.33215C32.8058 1.97462 32.6027 1.7496 32.6027 1.46207C32.6027 0.749513 33.7809 0.479492 36.526 0.479492H42.039C45.6678 0.479492 48.2097 2.53217 48.2097 5.59242C48.2097 7.58008 47.1203 9.43274 45.4189 10.2803C46.0766 10.6178 46.3483 10.9079 46.6886 11.6654L47.1889 12.7155C47.7094 13.8756 48.3468 13.5881 48.9131 13.9656C49.3194 14.2331 49.6622 14.8157 49.0502 15.5983C48.3011 16.5583 47.0543 16.7808 45.8506 16.7808C43.7404 16.7808 42.7449 16.0883 41.9273 14.0106L41.2899 12.3805C40.9725 11.5529 40.429 11.3079 40.0202 11.3079H39.6114C39.2254 11.3079 39.0679 11.4879 39.0679 11.8654V12.8705C39.0679 13.7831 39.2482 14.0081 39.9059 14.7007C40.2487 15.0582 40.4519 15.2832 40.4519 15.5707C40.4519 16.2858 39.2736 16.5558 36.5285 16.5558C33.7835 16.5558 32.6052 16.2883 32.6052 15.5707C32.6052 15.2807 32.8084 15.0582 33.1486 14.7007M42.6078 5.98995C42.6078 3.93728 41.5184 3.21972 40.1802 3.21972H39.6139C39.2279 3.21972 39.0705 3.39973 39.0705 3.77727V8.00012C39.0705 8.38015 39.2279 8.55766 39.6139 8.55766H40.2056C41.7038 8.55766 42.6104 7.8651 42.6104 5.98745" fill="white"/>
<path d="M58.4702 11.2969C58.1357 10.9339 57.936 10.7054 57.936 10.388C57.936 9.68482 58.9844 9.41572 61.5707 9.41572C64.1569 9.41572 65.2054 9.68736 65.2054 10.388C65.2054 10.7054 65.0032 10.9339 64.6687 11.2969C64.0671 11.9544 64.0671 12.2261 64.0671 13.1578V16.0823C64.0671 16.6485 63.7101 17.0344 63.2208 17.0344C63.041 17.0344 62.8638 16.9684 62.6616 16.877L61.7929 16.4454C61.5457 16.3311 61.2561 16.3311 61.034 16.4454C60.0529 16.9201 58.8047 17.2603 57.3768 17.2603C52.6262 17.2603 48.9041 13.5411 48.9041 8.57541C48.9041 3.60971 52.6262 0.479492 56.9299 0.479492C60.6994 0.479492 63.7975 2.88364 63.7975 5.96816C63.7975 7.05472 63.061 8.14637 61.5457 8.14637C58.4028 8.14637 58.9145 3.49547 56.8201 3.49547C55.6817 3.49547 54.4335 4.90191 54.4335 7.69194C54.4335 10.7968 55.9713 13.8356 58.5575 14.2012C58.8946 14.2469 59.0693 14.0869 59.0693 13.7467V13.1578C59.0693 12.2286 59.0693 11.9544 58.4677 11.2969" fill="white"/>
<path d="M71.5656 11.0247V13.4678C71.5656 13.8588 71.7204 14.0377 72.1 14.0377H73.7506C75.0666 14.0377 76.3826 13.5368 77.7435 11.4821C78.3228 10.6158 78.6799 10.3424 79.1918 10.3424C80.1957 10.3424 80.3056 11.3697 79.6838 14.2012C79.2368 16.2074 78.59 17.2603 77.8084 17.2603C77.3415 17.2603 77.1417 16.8488 76.3801 16.8488H69.0635C66.3666 16.8488 65.2054 16.5754 65.2054 15.8445C65.2054 15.5455 65.4052 15.3206 65.7398 14.9551C66.3866 14.2472 66.5664 14.0198 66.5664 13.0819V4.17834C66.5664 3.24301 66.3866 3.013 65.7398 2.30511C65.4052 1.94222 65.2054 1.71223 65.2054 1.41578C65.2054 0.684892 66.3641 0.408891 69.0635 0.408891H75.7109C76.4675 0.408891 76.6673 0 77.1392 0C77.9208 0 78.5676 1.05033 79.0121 3.05645C79.6388 5.88801 79.524 6.91534 78.5226 6.91534C78.0107 6.91534 77.6536 6.6419 77.0718 5.77557C75.7133 3.7209 74.3949 3.22001 73.0789 3.22001H72.0975C71.7179 3.22001 71.5631 3.404 71.5631 3.78989V6.86935C71.5631 7.26035 71.7179 7.43923 72.0975 7.43923H72.6094C73.5234 7.43923 73.7481 7.23479 74.4398 6.5729C74.7969 6.23046 75.0216 6.02346 75.3538 6.02346C76.0455 6.02346 76.2902 6.91279 76.2902 8.94446C76.2902 10.9761 76.0455 11.8655 75.3538 11.8655C75.0191 11.8655 74.7969 11.661 74.4398 11.3186C73.7481 10.6567 73.5259 10.4497 72.6094 10.4497H72.0975C71.7179 10.4497 71.5631 10.6337 71.5631 11.0196" fill="white"/>
<path d="M81.5551 14.7057C82.194 14.0131 82.3716 13.7906 82.3716 12.8755V4.1648C82.3716 3.24973 82.194 3.0247 81.5551 2.33215C81.2246 1.97462 81.0272 1.7496 81.0272 1.46207C81.0272 0.749513 82.1718 0.479492 84.8385 0.479492H90.194C93.7191 0.479492 96.1883 2.53217 96.1883 5.59242C96.1883 7.58008 95.1301 9.43274 93.4773 10.2803C94.1162 10.6178 94.3802 10.9079 94.7107 11.6654L95.1967 12.7155C95.7024 13.8756 96.3215 13.5881 96.8716 13.9656C97.2663 14.2331 97.5994 14.8157 97.0049 15.5983C96.2772 16.5583 95.0659 16.7808 93.8967 16.7808C91.8467 16.7808 90.8797 16.0883 90.0854 14.0106L89.4662 12.3805C89.1579 11.5529 88.63 11.3079 88.2328 11.3079H87.8357C87.4607 11.3079 87.3078 11.4879 87.3078 11.8654V12.8705C87.3078 13.7831 87.4829 14.0081 88.1218 14.7007C88.4548 15.0582 88.6522 15.2832 88.6522 15.5707C88.6522 16.2858 87.5076 16.5558 84.8409 16.5558C82.1743 16.5558 81.0297 16.2883 81.0297 15.5707C81.0297 15.2807 81.227 15.0582 81.5576 14.7007M90.7465 5.98995C90.7465 3.93728 89.6883 3.21972 88.3882 3.21972H87.8381C87.4632 3.21972 87.3102 3.39973 87.3102 3.77727V8.00012C87.3102 8.38015 87.4632 8.55766 87.8381 8.55766H88.4129C89.8683 8.55766 90.749 7.8651 90.749 5.98745" fill="white"/>
<path d="M113.107 6.70365C113.282 7.84538 112.92 8.3666 112.219 8.5431L111.946 8.61756C111.762 8.6672 111.673 8.56792 111.634 8.34454L111.244 5.78531C111.205 5.54814 111.264 5.42405 111.439 5.37441L111.712 5.31373C112.336 5.15102 112.912 5.46265 113.107 6.70365Z" fill="white"/>
<path d="M122.982 2.52555C122.482 1.08057 120.936 0.216627 119.424 0.0448473C116.401 -0.308818 113.595 1.52266 110.651 2.26283C108.413 2.82112 106.061 2.75291 103.765 2.46745C102.947 2.3664 102.117 2.2401 101.355 1.90917C100.956 1.73991 98.7636 0.863324 99.5029 2.12389C100.57 3.94526 101.696 6.04957 102.899 7.77748C103.116 8.09577 103.343 8.44944 103.298 8.82332C103.275 9.13151 103.081 9.3816 102.889 9.61906C101.981 10.7457 100.979 11.4733 99.889 12.4282C99.5256 12.7465 99.1168 13.2012 99.2859 13.6559C99.3439 13.8049 99.4575 13.9186 99.571 14.0323C99.7653 14.2268 99.9571 14.3961 100.161 14.5678C102.332 16.364 105.319 17.1496 108.082 16.6166C110.161 16.2174 112.036 15.1362 113.979 14.3076C115.922 13.4765 118.127 12.8854 120.148 13.4993C120.978 13.7494 121.728 14.2041 122.535 14.5224C122.662 14.578 122.808 14.6234 122.911 14.5451C122.979 14.4996 123.015 14.3961 123.037 14.3178C123.209 13.6584 123.209 12.9637 123.209 12.2817C123.209 9.71001 123.209 7.14088 123.219 4.57933C123.219 3.88463 123.219 3.16973 122.982 2.5205M117.708 11.2106C117.403 11.8244 116.755 12.0745 116.096 12.2109C114.938 12.4383 114.325 12.1655 113.653 11.0969L113.121 10.2557C112.859 9.83378 112.541 9.75548 112.314 9.80095L112.086 9.84642C111.882 9.89189 111.814 10.0056 111.859 10.2102L111.963 10.7786C112.066 11.2788 112.19 11.3823 112.621 11.7006C112.849 11.8598 112.985 11.9634 113.018 12.1225C113.098 12.5216 112.485 12.7945 110.984 13.1001C109.485 13.3957 108.814 13.373 108.733 12.9738C108.7 12.8147 108.778 12.6656 108.927 12.4282C109.212 11.9735 109.291 11.8244 109.187 11.3242L108.233 6.48912C108.133 5.97631 108.006 5.87526 107.575 5.55696C107.348 5.39781 107.212 5.29424 107.189 5.1351C107.108 4.73596 107.724 4.46313 109.223 4.16756L112.223 3.56381C114.211 3.17731 115.823 4.04126 116.154 5.73633C116.371 6.84027 115.985 7.98968 115.142 8.64901C115.541 8.76269 115.72 8.88899 115.995 9.2755L116.381 9.81105C116.79 10.3921 117.108 10.1647 117.461 10.3112C117.711 10.4249 117.961 10.7104 117.711 11.2106" fill="white"/>
<path d="M125.2 2.55467C125.225 12.3191 125.211 22.0836 125.211 31.8581V35H124.106V16.9517C124.106 12.1485 124.092 7.35784 124.117 2.55467C123.587 2.3514 123.219 1.8771 123.219 1.3225C123.219 0.58722 123.858 0 124.657 0C125.457 0 126.096 0.58722 126.096 1.3225C126.096 1.8771 125.727 2.3514 125.198 2.55467" fill="white"/>
<path d="M104.044 26.3164C104.044 21.3271 107.797 18.2192 112.132 18.2192C115.931 18.2192 119.055 20.6238 119.055 23.7062C119.055 25.2043 118.313 26.3367 116.806 26.3367C113.614 26.3367 114.134 21.2331 111.999 21.2331C110.874 21.2331 109.616 22.6398 109.616 25.4302C109.616 28.7641 111.39 30.8283 114.336 30.8283C115.75 30.8283 117.123 30.0133 117.885 28.6727C118.089 28.3324 118.426 27.8576 119.01 27.8576C119.727 27.8576 119.863 28.6269 119.863 29.1728C119.863 30.5541 118.987 32.2781 117.526 33.4131C116.446 34.2535 114.738 35 112.58 35C107.795 35 104.041 31.2803 104.041 26.3138" fill="white"/>
</svg>
