<svg width="24" height="24" viewBox="0 0 24 24" fill="none" xmlns="http://www.w3.org/2000/svg">
<g clip-path="url(#clip0_483_30757)">
<path d="M0 8.39192C0.169375 8.00942 0.47125 7.8713 0.8775 7.88692C1.28062 7.90192 1.685 7.89005 2.09812 7.89005V14.235C1.60562 14.235 1.12313 14.2457 0.641875 14.2313C0.32125 14.2219 0.133125 14.0063 0 13.7363V8.39192Z" fill="white"/>
<path d="M24 11.5796C23.9463 11.7496 23.8894 11.9189 23.8394 12.0896C23.6275 12.8052 23.1975 13.3702 22.6144 13.8596V8.2583C22.9419 8.57518 23.2613 8.8683 23.4913 9.2558C23.7263 9.65268 23.8588 10.0802 23.9575 10.5239C23.9631 10.5496 23.9856 10.5714 24.0006 10.5946V11.5789L24 11.5796Z" fill="white"/>
<path d="M9.14932 15.5396V6.59649C9.49495 6.55461 9.83682 6.52399 10.1749 6.46899C10.9168 6.34836 11.6643 6.24899 12.3956 6.07961C13.7499 5.76524 15.0418 5.26274 16.2781 4.63086C17.2356 4.14149 18.1531 3.57961 19.0006 2.91211C19.3499 2.63711 19.6893 2.34899 20.0343 2.06836C20.2606 1.88399 20.5131 1.89274 20.7637 1.99524C21.0568 2.11524 21.1581 2.37086 21.1868 2.66524C21.1906 2.70399 21.1868 2.74336 21.1868 2.78211C21.1868 8.30524 21.1868 13.829 21.1868 19.3521C21.1868 19.704 21.0843 19.9977 20.7387 20.1502C20.4874 20.2609 20.2481 20.2302 20.0293 20.0584C19.4574 19.609 18.9031 19.1352 18.3093 18.7177C16.7599 17.6277 15.0643 16.824 13.2481 16.2952C12.4443 16.0615 11.6131 15.914 10.7887 15.7584C10.2562 15.6577 9.71245 15.6134 9.14807 15.5409L9.14932 15.5396Z" fill="white"/>
<path d="M7.72935 6.61119V15.5062C7.67372 15.5106 7.62185 15.5174 7.56997 15.5174C6.4531 15.5174 5.3356 15.5187 4.21872 15.5174C3.79435 15.5174 3.51622 15.2399 3.51622 14.8143C3.5156 12.3062 3.51497 9.79869 3.51622 7.29056C3.51622 6.92056 3.78435 6.61744 4.14872 6.61431C5.33497 6.60494 6.52122 6.61056 7.72872 6.61056L7.72935 6.61119Z" fill="white"/>
<path d="M4.21879 16.9293H7.72317C7.72692 17.0006 7.73379 17.0681 7.73379 17.135C7.73379 18.5181 7.72504 19.9012 7.73879 21.2837C7.74379 21.7687 7.33067 22.1062 6.93817 22.0887C6.26004 22.0587 5.57942 22.0812 4.89942 22.08C4.51004 22.0787 4.21942 21.7912 4.21942 21.4018C4.21754 19.9181 4.21879 18.435 4.21879 16.9287V16.9293Z" fill="white"/>
</g>
<defs>
<clipPath id="clip0_483_30757">
<rect width="24" height="24" fill="white"/>
</clipPath>
</defs>
</svg>
