<svg width="30" height="30" viewBox="0 0 30 30" fill="none" xmlns="http://www.w3.org/2000/svg">
<path d="M20.6 23H9.4C8.76348 23 8.15303 22.7471 7.70294 22.2971C7.25286 21.847 7 21.2365 7 20.6V7.8C7 7.58783 7.08429 7.38434 7.23431 7.23431C7.38434 7.08429 7.58783 7 7.8 7H19C19.2122 7 19.4157 7.08429 19.5657 7.23431C19.7157 7.38434 19.8 7.58783 19.8 7.8V17.4H23V20.6C23 21.2365 22.7471 21.847 22.2971 22.2971C21.847 22.7471 21.2365 23 20.6 23ZM19.8 19V20.6C19.8 20.8122 19.8843 21.0157 20.0343 21.1657C20.1843 21.3157 20.3878 21.4 20.6 21.4C20.8122 21.4 21.0157 21.3157 21.1657 21.1657C21.3157 21.0157 21.4 20.8122 21.4 20.6V19H19.8ZM10.2 11V12.6H16.6V11H10.2ZM10.2 14.2V15.8H16.6V14.2H10.2ZM10.2 17.4V19H14.2V17.4H10.2Z" fill="white"/>
</svg>
