<svg width="30" height="30" viewBox="0 0 30 30" fill="none" xmlns="http://www.w3.org/2000/svg">
<rect width="30" height="30" rx="5" fill="#FF8A00"/>
<path fill-rule="evenodd" clip-rule="evenodd" d="M12.6667 8.77778C12.6667 8.5715 12.7486 8.37367 12.8945 8.22781C13.0403 8.08194 13.2382 8 13.4444 8H16.5556C16.7618 8 16.9597 8.08194 17.1055 8.22781C17.2514 8.37367 17.3333 8.5715 17.3333 8.77778C17.3333 8.98406 17.2514 9.18189 17.1055 9.32775C16.9597 9.47361 16.7618 9.55556 16.5556 9.55556H15.7778V10.3606C20.0089 10.7417 22.7856 15.1299 21.167 19.1774C21.1093 19.3219 21.0096 19.4457 20.8808 19.5329C20.752 19.6201 20.6 19.6667 20.4444 19.6667H9.55556C9.40014 19.6666 9.24831 19.6199 9.11966 19.5327C8.99101 19.4455 8.89144 19.3218 8.83378 19.1774C7.21444 15.1299 9.99111 10.7417 14.2222 10.3606V9.55556H13.4444C13.2382 9.55556 13.0403 9.47361 12.8945 9.32775C12.7486 9.18189 12.6667 8.98406 12.6667 8.77778ZM8 21.2222C8 21.0159 8.08194 20.8181 8.22781 20.6722C8.37367 20.5264 8.5715 20.4444 8.77778 20.4444H21.2222C21.4285 20.4444 21.6263 20.5264 21.7722 20.6722C21.9181 20.8181 22 21.0159 22 21.2222C22 21.4285 21.9181 21.6263 21.7722 21.7722C21.6263 21.9181 21.4285 22 21.2222 22H8.77778C8.5715 22 8.37367 21.9181 8.22781 21.7722C8.08194 21.6263 8 21.4285 8 21.2222Z" fill="#FCFCFC"/>
</svg>
