<svg width="30" height="30" viewBox="0 0 30 30" fill="none" xmlns="http://www.w3.org/2000/svg">
<path fill-rule="evenodd" clip-rule="evenodd" d="M11.6428 7.85333C11.8817 7.34987 12.3971 7 12.9927 7H16.4061C17.0017 7 17.5163 7.34987 17.756 7.85333C18.3389 7.85845 18.7937 7.88491 19.1999 8.04363C19.6848 8.2333 20.1065 8.55564 20.4167 8.97376C20.7299 9.39531 20.8775 9.93547 21.0789 10.6787L21.7121 13.0015L21.951 13.7191L21.9715 13.7447C22.7404 14.7295 22.3743 16.1938 21.6421 19.1216C21.1762 20.9844 20.9441 21.9154 20.2495 22.4581C19.5549 23 18.5949 23 16.6749 23H12.7239C10.8039 23 9.84394 23 9.14932 22.4581C8.45471 21.9154 8.22175 20.9844 7.75668 19.1216C7.02452 16.1938 6.65844 14.7295 7.4273 13.7447L7.44778 13.7191L7.68671 13.0015L8.31988 10.6787C8.52212 9.93547 8.66975 9.39445 8.98207 8.97291C9.29245 8.5551 9.71414 8.23306 10.1989 8.04363C10.6051 7.88491 11.0591 7.8576 11.6428 7.85333ZM11.6445 9.13589C11.0796 9.14187 10.8526 9.1632 10.6648 9.23659C10.4037 9.33871 10.1766 9.51231 10.0095 9.73749C9.8593 9.93973 9.77055 10.2222 9.52308 11.1327L9.03668 12.9153C9.90708 12.76 11.0966 12.76 12.7231 12.76H16.6749C18.3022 12.76 19.4909 12.76 20.3613 12.9136L19.8757 11.131C19.6283 10.2205 19.5395 9.93803 19.3893 9.73579C19.2222 9.5106 18.9951 9.33701 18.734 9.23488C18.5462 9.16149 18.3192 9.14016 17.7543 9.13419C17.6332 9.3892 17.4422 9.60465 17.2036 9.75553C16.9649 9.90642 16.6884 9.98656 16.4061 9.98667H12.9927C12.7105 9.98664 12.434 9.90662 12.1954 9.75589C11.9568 9.60516 11.7658 9.39075 11.6445 9.13589Z" fill="white"/>
</svg>
