<svg width="12" height="14" viewBox="0 0 12 14" fill="none" xmlns="http://www.w3.org/2000/svg">
<path d="M11 1L10 0L9 1L8 0L7 1L6 0L5 1L4 0L3 1L2 0V9.3125H0V11.3125C0 11.6875 0.0885417 12.026 0.265625 12.3281C0.442708 12.6302 0.682292 12.8698 0.984375 13.0469C1.28646 13.224 1.625 13.3125 2 13.3125H10C10.375 13.3125 10.7135 13.224 11.0156 13.0469C11.3177 12.8698 11.5573 12.6302 11.7344 12.3281C11.9115 12.026 12 11.6875 12 11.3125V0L11 1ZM10.6562 11.3125C10.6562 11.5 10.5938 11.6615 10.4688 11.7969C10.3438 11.9323 10.1875 12 10 12C9.8125 12 9.65625 11.9323 9.53125 11.7969C9.40625 11.6615 9.34375 11.5 9.34375 11.3125V9.3125H3.34375V2H10.6562V11.3125ZM4 3.3125H8V4.65625H4V3.3125ZM8.65625 3.3125H10V4.65625H8.65625V3.3125ZM4 5.3125H8V6.65625H4V5.3125ZM8.65625 5.3125H10V6.65625H8.65625V5.3125Z" fill="#9CA3AF"/>
</svg>
