<svg width="30" height="30" viewBox="0 0 30 30" fill="none" xmlns="http://www.w3.org/2000/svg">
<rect width="30" height="30" rx="5" fill="#FF8A00"/>
<g clip-path="url(#clip0_299_5251)">
<path d="M21.8355 16.3494C21.8355 18.114 21.8355 19.8785 21.8355 21.6431C21.8355 21.8699 21.7863 21.9184 21.5559 21.9184C20.7462 21.9184 19.9368 21.9184 19.1271 21.9184C18.8693 21.9184 18.8492 21.8991 18.8492 21.642C18.8492 19.3273 18.8492 17.0126 18.8492 14.6974C18.8492 13.4921 18.8492 12.2872 18.8492 11.0819C18.8492 10.8219 18.87 10.8008 19.1245 10.8008C19.9434 10.8008 20.7618 10.8008 21.5807 10.8008C21.7867 10.8008 21.8352 10.8496 21.8352 11.056C21.8352 12.8206 21.8352 14.5852 21.8352 16.3497L21.8355 16.3494Z" fill="white"/>
<path d="M15.2851 17.2188C15.2851 15.7455 15.2851 14.2726 15.2851 12.7993C15.2851 12.5675 15.319 12.5332 15.5494 12.5332C16.3635 12.5332 17.1773 12.5332 17.9914 12.5332C18.2069 12.5332 18.263 12.5893 18.263 12.8034C18.263 15.7543 18.263 18.7049 18.263 21.6558C18.263 21.8757 18.2218 21.9176 18.0067 21.9176C17.1744 21.9176 16.3424 21.9176 15.51 21.9176C15.3128 21.9176 15.2855 21.891 15.2855 21.6923C15.2851 20.2008 15.2855 18.7096 15.2855 17.2181L15.2851 17.2188Z" fill="white"/>
<path d="M11.7133 17.9464C11.7133 16.7093 11.7133 15.4719 11.7133 14.2349C11.7133 14.0344 11.7479 13.999 11.9495 13.999C12.7866 13.999 13.6237 13.999 14.4604 13.999C14.6471 13.999 14.6908 14.0435 14.6908 14.2324C14.6908 16.7159 14.6908 19.1991 14.6908 21.6826C14.6908 21.8634 14.6376 21.9178 14.4611 21.9178C13.6197 21.9178 12.7778 21.9178 11.9364 21.9178C11.7475 21.9178 11.7129 21.8817 11.7129 21.6848C11.7129 20.4387 11.7129 19.1925 11.7129 17.946L11.7133 17.9464Z" fill="white"/>
<path d="M8.14038 18.5604C8.14038 17.5327 8.14038 16.5049 8.14038 15.4771C8.14038 15.254 8.17538 15.219 8.40325 15.219C9.22647 15.2187 10.0497 15.2187 10.8729 15.219C11.0738 15.219 11.1267 15.273 11.1267 15.4775C11.1267 17.5374 11.1267 19.5977 11.1267 21.6576C11.1267 21.8657 11.0727 21.9186 10.862 21.9186C10.0435 21.9186 9.22465 21.9186 8.40616 21.9186C8.167 21.9186 8.14075 21.8916 8.14075 21.6437C8.14075 20.616 8.14075 19.5882 8.14075 18.5604H8.14038Z" fill="white"/>
<path d="M19.8665 9.04488C19.7214 9.17467 19.5898 9.28805 19.4629 9.40581C18.8114 10.0107 18.0917 10.5236 17.3257 10.9702C16.863 11.2397 16.3975 11.5095 15.9111 11.7311C15.2352 12.0396 14.5432 12.3152 13.8498 12.5828C12.9551 12.9281 12.0283 13.1745 11.0957 13.3922C10.5408 13.5216 9.97388 13.6011 9.41242 13.7013C9.33367 13.7156 9.25346 13.7261 9.17362 13.7279C8.99753 13.7316 8.86773 13.6233 8.84622 13.4633C8.82289 13.2879 8.92607 13.1355 9.10581 13.1031C9.43648 13.0433 9.77008 12.9991 10.1 12.9357C10.442 12.8701 10.7825 12.7953 11.1209 12.7129C11.9547 12.5106 12.7826 12.2849 13.5858 11.9809C14.1557 11.7654 14.7215 11.5375 15.2818 11.298C15.9778 11.0009 16.6465 10.6454 17.2787 10.2301C17.7366 9.92936 18.1741 9.59649 18.613 9.26764C18.8336 9.10248 19.0371 8.91399 19.2482 8.73607C19.243 8.72368 19.2379 8.71165 19.2328 8.69925C19.0845 8.71383 18.9332 8.71493 18.7891 8.74738C18.6528 8.778 18.5496 8.73498 18.4661 8.64529C18.3775 8.54977 18.3414 8.43238 18.4023 8.30186C18.4574 8.18409 18.5445 8.12576 18.6768 8.10316C19.1997 8.01456 19.7261 8.02514 20.2529 8.02149C20.3827 8.02076 20.4356 8.0842 20.4458 8.19321C20.4772 8.51842 20.503 8.84436 20.5289 9.16993C20.541 9.32232 20.5519 9.47508 20.5555 9.62748C20.5599 9.80175 20.4454 9.9217 20.2719 9.93555C20.0954 9.94977 19.9536 9.84295 19.9314 9.66941C19.9059 9.47034 19.8895 9.27019 19.8665 9.04415V9.04488Z" fill="white"/>
</g>
<defs>
<clipPath id="clip0_299_5251">
<rect width="14" height="14" fill="white" transform="translate(8 8)"/>
</clipPath>
</defs>
</svg>
