<svg width="18" height="18" viewBox="0 0 18 18" fill="none" xmlns="http://www.w3.org/2000/svg">
<path d="M15 15L12.1047 12.1047M12.1047 12.1047C12.6 11.6094 12.9928 11.0215 13.2608 10.3744C13.5289 9.72734 13.6668 9.0338 13.6668 8.33341C13.6668 7.63302 13.5289 6.93948 13.2608 6.2924C12.9928 5.64532 12.6 5.05737 12.1047 4.56212C11.6094 4.06687 11.0215 3.67401 10.3744 3.40598C9.72734 3.13795 9.0338 3 8.33341 3C7.63302 3 6.93948 3.13795 6.2924 3.40598C5.64532 3.67401 5.05737 4.06687 4.56212 4.56212C3.56191 5.56233 3 6.9189 3 8.33341C3 9.74792 3.56191 11.1045 4.56212 12.1047C5.56233 13.1049 6.9189 13.6668 8.33341 13.6668C9.74792 13.6668 11.1045 13.1049 12.1047 12.1047Z" stroke="#787878" stroke-width="1.66665" stroke-linecap="round" stroke-linejoin="round"/>
</svg>
