<svg width="30" height="30" viewBox="0 0 30 30" fill="none" xmlns="http://www.w3.org/2000/svg">
<path fill-rule="evenodd" clip-rule="evenodd" d="M16.0235 7.1216C15.7275 7 15.3515 7 14.6003 7C13.8491 7 13.4739 7 13.1771 7.1216C12.9818 7.2014 12.8042 7.31903 12.6545 7.46772C12.5049 7.61641 12.3861 7.79323 12.3051 7.988C12.2299 8.1664 12.2011 8.3752 12.1891 8.6784C12.1833 8.898 12.1219 9.11255 12.0105 9.30188C11.8991 9.49122 11.7414 9.64914 11.5523 9.7608C11.3592 9.86808 11.1423 9.92492 10.9215 9.92603C10.7007 9.92715 10.4831 9.87252 10.2891 9.7672C10.0187 9.6248 9.82265 9.5464 9.62905 9.5208C9.20552 9.46554 8.77727 9.57936 8.43705 9.8376C8.18265 10.0312 7.99465 10.3544 7.61945 11C7.24345 11.6456 7.05625 11.968 7.01385 12.284C6.95785 12.7048 7.07305 13.1304 7.33385 13.4672C7.45225 13.6208 7.61945 13.7496 7.87785 13.9112C8.25945 14.1488 8.50425 14.5536 8.50425 15C8.50425 15.4464 8.25945 15.8512 7.87865 16.088C7.61945 16.2504 7.45225 16.3792 7.33305 16.5328C7.20471 16.6994 7.11045 16.8896 7.05568 17.0926C7.00091 17.2957 6.9867 17.5075 7.01385 17.716C7.05625 18.0312 7.24345 18.3544 7.61945 19C7.99545 19.6456 8.18265 19.968 8.43705 20.1624C8.77625 20.4208 9.20505 20.5344 9.62905 20.4792C9.82265 20.4536 10.0187 20.3752 10.2891 20.2328C10.4832 20.1273 10.7009 20.0726 10.9219 20.0737C11.1428 20.0749 11.36 20.1318 11.5531 20.2392C11.9419 20.4632 12.1723 20.8752 12.1891 21.3216C12.2011 21.6256 12.2299 21.8336 12.3051 22.012C12.4683 22.404 12.7819 22.716 13.1771 22.8784C13.4731 23 13.8491 23 14.6003 23C15.3515 23 15.7275 23 16.0235 22.8784C16.2187 22.7986 16.3963 22.681 16.546 22.5323C16.6956 22.3836 16.8144 22.2068 16.8955 22.012C16.9707 21.8336 16.9995 21.6256 17.0115 21.3216C17.0275 20.8752 17.2587 20.4624 17.6483 20.2392C17.8413 20.1319 18.0582 20.0751 18.279 20.074C18.4998 20.0728 18.7174 20.1275 18.9115 20.2328C19.1819 20.3752 19.3779 20.4536 19.5715 20.4792C19.9955 20.5352 20.4243 20.4208 20.7635 20.1624C21.0179 19.9688 21.2059 19.6456 21.5811 19C21.9571 18.3544 22.1443 18.032 22.1867 17.716C22.2137 17.5074 22.1994 17.2956 22.1444 17.0925C22.0895 16.8895 21.9951 16.6993 21.8667 16.5328C21.7483 16.3792 21.5811 16.2504 21.3227 16.0888C20.9411 15.8512 20.6963 15.4464 20.6963 15C20.6963 14.5536 20.9411 14.1488 21.3219 13.912C21.5811 13.7496 21.7483 13.6208 21.8675 13.4672C21.9958 13.3006 22.0901 13.1104 22.1448 12.9074C22.1996 12.7043 22.2138 12.4925 22.1867 12.284C22.1443 11.9688 21.9571 11.6456 21.5811 11C21.2051 10.3544 21.0179 10.032 20.7635 9.8376C20.4232 9.57936 19.995 9.46554 19.5715 9.5208C19.3779 9.5464 19.1819 9.6248 18.9115 9.7672C18.7173 9.87266 18.4996 9.92737 18.2786 9.92625C18.0577 9.92514 17.8406 9.86822 17.6475 9.7608C17.4584 9.64904 17.3009 9.49108 17.1896 9.30175C17.0784 9.11242 17.0171 8.89792 17.0115 8.6784C16.9995 8.3744 16.9707 8.1664 16.8955 7.988C16.8144 7.79323 16.6956 7.61641 16.546 7.46772C16.3963 7.31903 16.2187 7.2014 16.0235 7.1216ZM14.6003 17.4C15.9363 17.4 17.0187 16.3256 17.0187 15C17.0187 13.6744 15.9355 12.6 14.6003 12.6C13.2651 12.6 12.1819 13.6744 12.1819 15C12.1819 16.3256 13.2651 17.4 14.6003 17.4Z" fill="white"/>
</svg>
