<svg width="30" height="30" viewBox="0 0 30 30" fill="none" xmlns="http://www.w3.org/2000/svg">
<path d="M16.8824 9.35294C16.8824 9.97698 16.6345 10.5755 16.1932 11.0167C15.7519 11.458 15.1535 11.7059 14.5294 11.7059C13.9054 11.7059 13.3069 11.458 12.8656 11.0167C12.4244 10.5755 12.1765 9.97698 12.1765 9.35294C12.1765 8.7289 12.4244 8.13042 12.8656 7.68916C13.3069 7.2479 13.9054 7 14.5294 7C15.1535 7 15.7519 7.2479 16.1932 7.68916C16.6345 8.13042 16.8824 8.7289 16.8824 9.35294ZM21.5882 9.82353C21.5882 10.3228 21.3899 10.8015 21.0369 11.1546C20.6839 11.5076 20.2051 11.7059 19.7059 11.7059C19.2067 11.7059 18.7279 11.5076 18.3749 11.1546C18.0218 10.8015 17.8235 10.3228 17.8235 9.82353C17.8235 9.3243 18.0218 8.84551 18.3749 8.4925C18.7279 8.1395 19.2067 7.94118 19.7059 7.94118C20.2051 7.94118 20.6839 8.1395 21.0369 8.4925C21.3899 8.84551 21.5882 9.3243 21.5882 9.82353ZM9.35294 11.7059C9.85217 11.7059 10.331 11.5076 10.684 11.1546C11.037 10.8015 11.2353 10.3228 11.2353 9.82353C11.2353 9.3243 11.037 8.84551 10.684 8.4925C10.331 8.1395 9.85217 7.94118 9.35294 7.94118C8.85371 7.94118 8.37493 8.1395 8.02192 8.4925C7.66891 8.84551 7.47059 9.3243 7.47059 9.82353C7.47059 10.3228 7.66891 10.8015 8.02192 11.1546C8.37493 11.5076 8.85371 11.7059 9.35294 11.7059ZM10.7647 13.8235C10.7647 13.1741 11.2918 12.6471 11.9412 12.6471H17.1176C17.6871 12.6471 18.1624 13.0518 18.2706 13.5882H17.8235C17.2742 13.5882 16.7422 13.7803 16.3197 14.1313C15.8971 14.4823 15.6108 14.9701 15.5101 15.5101C14.9701 15.6108 14.4823 15.8971 14.1313 16.3197C13.7803 16.7422 13.5882 17.2742 13.5882 17.8235V21.5882C13.5882 21.7106 13.5973 21.8301 13.6155 21.9468C12.8011 21.743 12.0781 21.2728 11.5616 20.611C11.0451 19.9492 10.7646 19.1337 10.7647 18.2941V13.8235ZM22.0193 15.5101L22.0588 15.5176V13.8235C22.0588 13.1741 21.5318 12.6471 20.8824 12.6471H18.8786C19.0631 12.9219 19.1845 13.2428 19.2221 13.5882H19.7059C20.2552 13.5882 20.7872 13.7803 21.2097 14.1313C21.6323 14.4823 21.9187 14.9701 22.0193 15.5101ZM9.82353 13.8235C9.82353 13.3878 9.95529 12.984 10.1802 12.6471H8.17647C7.52706 12.6471 7 13.1741 7 13.8235V17.3529C6.99996 17.7559 7.08615 18.1542 7.2528 18.521C7.41945 18.8879 7.66269 19.2148 7.96617 19.4799C8.26965 19.7449 8.62635 19.942 9.0123 20.0577C9.39824 20.1735 9.8045 20.2053 10.2038 20.1511C9.95238 19.5643 9.82301 18.9325 9.82353 18.2941V13.8235ZM16.4118 16.4118V15.9412C16.4118 15.5668 16.5605 15.2077 16.8253 14.9429C17.09 14.6782 17.4491 14.5294 17.8235 14.5294H19.7059C20.0803 14.5294 20.4394 14.6782 20.7042 14.9429C20.9689 15.2077 21.1176 15.5668 21.1176 15.9412V16.4118H21.5882C21.9627 16.4118 22.3217 16.5605 22.5865 16.8253C22.8513 17.09 23 17.4491 23 17.8235V19.2353H21.1176V18.7647C21.1176 18.6399 21.0681 18.5202 20.9798 18.4319C20.8916 18.3437 20.7719 18.2941 20.6471 18.2941C20.5223 18.2941 20.4026 18.3437 20.3143 18.4319C20.2261 18.5202 20.1765 18.6399 20.1765 18.7647V19.2353H17.3529V18.7647C17.3529 18.6399 17.3034 18.5202 17.2151 18.4319C17.1269 18.3437 17.0072 18.2941 16.8824 18.2941C16.7575 18.2941 16.6378 18.3437 16.5496 18.4319C16.4613 18.5202 16.4118 18.6399 16.4118 18.7647V19.2353H14.5294V17.8235C14.5294 17.4491 14.6782 17.09 14.9429 16.8253C15.2077 16.5605 15.5668 16.4118 15.9412 16.4118H16.4118ZM17.3529 15.9412V16.4118H20.1765V15.9412C20.1765 15.8164 20.1269 15.6967 20.0386 15.6084C19.9504 15.5202 19.8307 15.4706 19.7059 15.4706H17.8235C17.6987 15.4706 17.579 15.5202 17.4908 15.6084C17.4025 15.6967 17.3529 15.8164 17.3529 15.9412ZM21.1176 20.6471V20.1765H23V21.5882C23 21.9627 22.8513 22.3217 22.5865 22.5865C22.3217 22.8513 21.9627 23 21.5882 23H15.9412C15.5668 23 15.2077 22.8513 14.9429 22.5865C14.6782 22.3217 14.5294 21.9627 14.5294 21.5882V20.1765H16.4118V20.6471C16.4118 20.7719 16.4613 20.8916 16.5496 20.9798C16.6378 21.0681 16.7575 21.1176 16.8824 21.1176C17.0072 21.1176 17.1269 21.0681 17.2151 20.9798C17.3034 20.8916 17.3529 20.7719 17.3529 20.6471V20.1765H20.1765V20.6471C20.1765 20.7719 20.2261 20.8916 20.3143 20.9798C20.4026 21.0681 20.5223 21.1176 20.6471 21.1176C20.7719 21.1176 20.8916 21.0681 20.9798 20.9798C21.0681 20.8916 21.1176 20.7719 21.1176 20.6471Z" fill="white"/>
</svg>
