<svg width="30" height="30" viewBox="0 0 30 30" fill="none" xmlns="http://www.w3.org/2000/svg">
<rect width="30" height="30" rx="5" fill="#FF8A00"/>
<path d="M9.75 20.8332L10.625 19.9582L11.5 20.8332L12.375 19.9582L13.25 20.8332L14.1717 19.9115C14.2533 20.0223 14.3467 20.1215 14.4458 20.2207C15.2111 20.9745 16.2426 21.3965 17.3168 21.3952C18.3911 21.3938 19.4215 20.9693 20.1849 20.2136C20.9483 19.4578 21.3833 18.4317 21.3954 17.3576C21.4076 16.2834 20.9961 15.2477 20.25 14.4748V9.1665L19.375 10.0415L18.5 9.1665L17.625 10.0415L16.75 9.1665L15.875 10.0415L15 9.1665L14.125 10.0415L13.25 9.1665L12.375 10.0415L11.5 9.1665L10.625 10.0415L9.75 9.1665V20.8332ZM20.1625 17.3332C20.1625 17.7065 20.0925 18.074 19.9583 18.4182C19.8067 18.7565 19.5967 19.0832 19.3342 19.334C19.0833 19.5965 18.7567 19.8065 18.4183 19.9582C18.0742 20.0923 17.7067 20.1623 17.3333 20.1623C15.77 20.1623 14.5042 18.8965 14.5042 17.3332C14.5042 16.5807 14.8017 15.8748 15.3325 15.3323C15.875 14.8015 16.5808 14.504 17.3333 14.504C18.8908 14.504 20.1625 15.7698 20.1625 17.3332ZM16.75 17.7357V15.5832H17.625V17.2282L19.0483 18.0507L18.6108 18.809L16.75 17.7357Z" fill="white"/>
</svg>
