<svg width="30" height="30" viewBox="0 0 30 30" fill="none" xmlns="http://www.w3.org/2000/svg">
<rect width="30" height="30" rx="5" fill="#FF8A00"/>
<g clip-path="url(#clip0_267_7323)">
<path d="M21.8355 16.3494C21.8355 18.114 21.8355 19.8785 21.8355 21.6431C21.8355 21.8699 21.7863 21.9184 21.5559 21.9184C20.7462 21.9184 19.9368 21.9184 19.1271 21.9184C18.8693 21.9184 18.8492 21.8991 18.8492 21.642C18.8492 19.3273 18.8492 17.0126 18.8492 14.6974C18.8492 13.4921 18.8492 12.2872 18.8492 11.0819C18.8492 10.8219 18.87 10.8008 19.1245 10.8008C19.9434 10.8008 20.7618 10.8008 21.5807 10.8008C21.7867 10.8008 21.8352 10.8496 21.8352 11.056C21.8352 12.8206 21.8352 14.5852 21.8352 16.3497L21.8355 16.3494Z" fill="white"/>
<path d="M15.2852 17.2188C15.2852 15.7455 15.2852 14.2726 15.2852 12.7993C15.2852 12.5675 15.3191 12.5332 15.5495 12.5332C16.3636 12.5332 17.1773 12.5332 17.9915 12.5332C18.2069 12.5332 18.2631 12.5893 18.2631 12.8034C18.2631 15.7543 18.2631 18.7049 18.2631 21.6558C18.2631 21.8757 18.2219 21.9176 18.0068 21.9176C17.1744 21.9176 16.3424 21.9176 15.5101 21.9176C15.3129 21.9176 15.2855 21.891 15.2855 21.6923C15.2852 20.2008 15.2855 18.7096 15.2855 17.2181L15.2852 17.2188Z" fill="white"/>
<path d="M11.7133 17.9464C11.7133 16.7093 11.7133 15.4719 11.7133 14.2349C11.7133 14.0344 11.7479 13.999 11.9495 13.999C12.7866 13.999 13.6237 13.999 14.4604 13.999C14.6471 13.999 14.6908 14.0435 14.6908 14.2324C14.6908 16.7159 14.6908 19.1991 14.6908 21.6826C14.6908 21.8634 14.6376 21.9178 14.4611 21.9178C13.6197 21.9178 12.7778 21.9178 11.9364 21.9178C11.7475 21.9178 11.7129 21.8817 11.7129 21.6848C11.7129 20.4387 11.7129 19.1925 11.7129 17.946L11.7133 17.9464Z" fill="white"/>
<path d="M8.14038 18.5599C8.14038 17.5322 8.14038 16.5044 8.14038 15.4767C8.14038 15.2535 8.17538 15.2185 8.40325 15.2185C9.22647 15.2182 10.0497 15.2182 10.8729 15.2185C11.0738 15.2185 11.1267 15.2725 11.1267 15.477C11.1267 17.5369 11.1267 19.5972 11.1267 21.6571C11.1267 21.8653 11.0727 21.9181 10.862 21.9181C10.0435 21.9181 9.22465 21.9181 8.40616 21.9181C8.167 21.9181 8.14075 21.8911 8.14075 21.6432C8.14075 20.6155 8.14075 19.5877 8.14075 18.5599H8.14038Z" fill="white"/>
<path d="M19.8664 9.04536C19.7213 9.17516 19.5897 9.28854 19.4628 9.4063C18.8113 10.0111 18.0916 10.5241 17.3256 10.9707C16.863 11.2402 16.3974 11.5099 15.9111 11.7316C15.2351 12.0401 14.5431 12.3157 13.8497 12.5833C12.955 12.9285 12.0282 13.175 11.0956 13.3927C10.5407 13.5221 9.97382 13.6016 9.41236 13.7018C9.33361 13.716 9.2534 13.7266 9.17356 13.7284C8.99747 13.7321 8.86767 13.6238 8.84616 13.4637C8.82283 13.2884 8.92601 13.136 9.10575 13.1035C9.43642 13.0437 9.77002 12.9996 10.1 12.9362C10.4419 12.8706 10.7825 12.7958 11.1208 12.7134C11.9546 12.5111 12.7826 12.2854 13.5857 11.9814C14.1556 11.7659 14.7214 11.538 15.2818 11.2985C15.9778 11.0014 16.6464 10.6459 17.2786 10.2306C17.7365 9.92984 18.174 9.59698 18.613 9.26812C18.8336 9.10297 19.037 8.91448 19.2481 8.73656C19.243 8.72417 19.2379 8.71214 19.2328 8.69974C19.0844 8.71432 18.9331 8.71542 18.7891 8.74786C18.6527 8.77849 18.5495 8.73547 18.4661 8.64578C18.3775 8.55026 18.3414 8.43286 18.4023 8.30234C18.4573 8.18458 18.5444 8.12625 18.6768 8.10365C19.1996 8.01505 19.7261 8.02562 20.2529 8.02198C20.3827 8.02125 20.4355 8.08469 20.4457 8.1937C20.4771 8.51891 20.503 8.84484 20.5289 9.17042C20.5409 9.32281 20.5518 9.47557 20.5555 9.62797C20.5599 9.80224 20.4454 9.92219 20.2718 9.93604C20.0954 9.95026 19.9536 9.84344 19.9313 9.6699C19.9058 9.47083 19.8894 9.27068 19.8664 9.04464V9.04536Z" fill="white"/>
</g>
<defs>
<clipPath id="clip0_267_7323">
<rect width="14" height="14" fill="white" transform="translate(8 8)"/>
</clipPath>
</defs>
</svg>
