<svg width="30" height="30" viewBox="0 0 30 30" fill="none" xmlns="http://www.w3.org/2000/svg">
<rect width="30" height="30" rx="5" fill="#FF8A00"/>
<path d="M15.1017 10.2478C15.3482 10.5216 15.2691 10.9317 14.8567 11.0273C14.7893 11.0429 14.7022 11.024 14.6376 10.993C14.2938 10.8286 13.9515 10.6601 13.6142 10.4826C13.436 10.3889 13.3794 10.1993 13.4739 10.0166C13.654 9.66736 13.8206 9.31116 14.0065 8.96517C14.1155 8.76283 14.3613 8.75772 14.5235 8.8208C14.7102 8.89335 14.8192 9.10882 14.7773 9.29402C14.7689 9.33158 14.7762 9.37277 14.7762 9.40559C14.9723 9.38262 15.1644 9.35819 15.3569 9.3385C15.4816 9.32574 15.6074 9.31043 15.7325 9.31298C16.4204 9.32647 17.0993 9.40012 17.7515 9.63783C18.3374 9.85147 18.8857 10.1355 19.3644 10.5391C19.6164 10.7513 19.8687 10.9682 20.0889 11.2117C20.5515 11.7229 20.9088 12.3048 21.1567 12.9512C21.3259 13.3923 21.4258 13.8488 21.4885 14.3169C21.5581 14.8342 21.5381 15.3443 21.4626 15.8598C21.374 16.4636 21.195 17.0338 20.9187 17.5744C20.6525 18.0951 20.3153 18.5636 19.9029 18.9817C19.4396 19.4517 18.9164 19.8327 18.3247 20.12C17.7851 20.3817 17.2218 20.5753 16.6224 20.6293C16.2148 20.6661 15.8017 20.704 15.3952 20.6792C14.7853 20.6417 14.1881 20.4984 13.6332 20.2366C13.261 20.0609 12.9026 19.8502 12.5562 19.626C12.1818 19.3835 11.8551 19.0787 11.5737 18.7298C11.4421 18.5665 11.3196 18.3955 11.1843 18.2354C11.1529 18.1982 11.0859 18.1742 11.0348 18.1731C10.6892 18.1676 10.3432 18.1683 9.99757 18.1705C9.33257 18.1745 8.74559 17.7473 8.52684 17.13C8.47143 16.974 8.44153 16.8004 8.4408 16.6345C8.43424 15.4314 8.43096 14.2279 8.44408 13.0252C8.44773 12.6941 8.59393 12.4014 8.8134 12.1473C9.16742 11.7371 9.62351 11.5982 10.1489 11.5996C11.9685 11.6051 13.7885 11.6018 15.6081 11.6015C16.0843 11.6015 16.5006 11.7499 16.8313 12.1017C17.0873 12.3737 17.2389 12.7014 17.2531 13.0729C17.2721 13.5644 17.2619 14.0569 17.2626 14.5491C17.2637 15.201 17.2612 15.8525 17.2634 16.5044C17.2648 16.9612 17.1255 17.3677 16.8076 17.6948C16.571 17.9383 16.2782 18.1031 15.933 18.1439C15.7686 18.1632 15.6016 18.1691 15.4353 18.1694C14.3846 18.1716 13.3339 18.1705 12.2802 18.1705C13.1811 19.3474 15.2436 20.2643 17.302 19.5844C18.4501 19.2052 19.3429 18.5005 19.9755 17.472C20.4491 16.702 20.6762 15.8496 20.6584 14.9527C20.6296 13.4988 20.0652 12.2708 18.9517 11.328C17.8419 10.3885 16.544 10.0651 15.1021 10.2478H15.1017ZM16.3803 13.5458C16.3803 13.4415 16.3741 13.3504 16.3814 13.26C16.4153 12.8287 16.0752 12.4663 15.599 12.479C15.1856 12.4903 14.7714 12.4812 14.3576 12.4812C12.9022 12.4812 11.4468 12.4812 9.99137 12.4819C9.71867 12.4819 9.46346 12.6522 9.36794 12.8848C9.27898 13.1017 9.31835 13.3245 9.31106 13.5454H16.3807L16.3803 13.5458ZM14.2402 16.3432C14.5264 16.3432 14.813 16.3425 15.0992 16.3432C15.3471 16.344 15.5181 16.1599 15.5283 15.9072C15.5378 15.6695 15.3271 15.4843 15.1127 15.4828C14.5355 15.4788 13.958 15.4817 13.3809 15.481C13.1169 15.4806 12.9441 15.6976 12.9449 15.9112C12.9456 16.103 13.1035 16.3542 13.3948 16.3451C13.6762 16.3363 13.9584 16.3432 14.2402 16.3432Z" fill="white"/>
</svg>
