<svg width="32" height="32" viewBox="0 0 32 32" fill="none" xmlns="http://www.w3.org/2000/svg">
<path d="M0 8C0 3.58172 3.58172 0 8 0H24C28.4183 0 32 3.58172 32 8V24C32 28.4183 28.4183 32 24 32H8C3.58172 32 0 28.4183 0 24V8Z" fill="#F6F7F9"/>
<path d="M11.8334 23.5C11.375 23.5 10.9828 23.3369 10.6567 23.0108C10.3306 22.6847 10.1673 22.2922 10.1667 21.8333V11H9.33337V9.33333H13.5V8.5H18.5V9.33333H22.6667V11H21.8334V21.8333C21.8334 22.2917 21.6703 22.6842 21.3442 23.0108C21.0181 23.3375 20.6256 23.5006 20.1667 23.5H11.8334ZM20.1667 11H11.8334V21.8333H20.1667V11ZM13.5 20.1667H15.1667V12.6667H13.5V20.1667ZM16.8334 20.1667H18.5V12.6667H16.8334V20.1667Z" fill="black"/>
</svg>
