<svg width="24" height="24" viewBox="0 0 24 24" fill="none" xmlns="http://www.w3.org/2000/svg">
<path fill-rule="evenodd" clip-rule="evenodd" d="M12 5.99986C11.5404 5.99986 11.0852 6.09039 10.6606 6.26629C10.236 6.44218 9.85013 6.69999 9.52513 7.02499C9.20012 7.35 8.94231 7.73583 8.76642 8.16047C8.59053 8.58511 8.5 9.04024 8.5 9.49986C8.5 9.95949 8.59053 10.4146 8.76642 10.8393C8.94231 11.2639 9.20012 11.6497 9.52513 11.9747C9.85013 12.2997 10.236 12.5576 10.6606 12.7334C11.0852 12.9093 11.5404 12.9999 12 12.9999C12.9283 12.9999 13.8185 12.6311 14.4749 11.9747C15.1313 11.3184 15.5 10.4281 15.5 9.49986C15.5 8.57161 15.1313 7.68137 14.4749 7.02499C13.8185 6.36861 12.9283 5.99986 12 5.99986ZM10.5 13.9999C9.43913 13.9999 8.42172 14.4213 7.67157 15.1714C6.92143 15.9216 6.5 16.939 6.5 17.9999C6.5 18.5303 6.71071 19.039 7.08579 19.4141C7.46086 19.7891 7.96957 19.9999 8.5 19.9999H15.5C16.0304 19.9999 16.5391 19.7891 16.9142 19.4141C17.2893 19.039 17.5 18.5303 17.5 17.9999C17.5 16.939 17.0786 15.9216 16.3284 15.1714C15.5783 14.4213 14.5609 13.9999 13.5 13.9999H10.5ZM17.32 10.9039C17.6379 9.6932 17.5341 8.41038 17.0257 7.26657C16.5174 6.12276 15.6347 5.18613 14.523 4.61086C14.9466 4.32138 15.4287 4.12857 15.9351 4.0461C16.4415 3.96363 16.9599 3.9935 17.4535 4.1336C17.947 4.27371 18.4038 4.52062 18.7913 4.85686C19.1789 5.19309 19.4878 5.61042 19.6961 6.07929C19.9045 6.54816 20.0072 7.05711 19.997 7.57009C19.9868 8.08307 19.864 8.58754 19.6372 9.04777C19.4104 9.508 19.0851 9.91273 18.6845 10.2333C18.2839 10.5539 17.8178 10.7825 17.319 10.9029L17.32 10.9039ZM19.5 17.9999H20C20.5304 17.9999 21.0391 17.7891 21.4142 17.4141C21.7893 17.039 22 16.5303 22 15.9999C22 14.939 21.5786 13.9216 20.8284 13.1714C20.0783 12.4213 19.0609 11.9999 18 11.9999H16.9C16.764 12.2662 16.6065 12.5211 16.429 12.7619C17.3605 13.2829 18.1362 14.043 18.676 14.9637C19.2158 15.8845 19.5003 16.9325 19.5 17.9999ZM4 7.49986C3.99985 6.86265 4.17366 6.23749 4.50268 5.6918C4.8317 5.1461 5.30346 4.70059 5.86707 4.4033C6.43068 4.106 7.06476 3.96822 7.70092 4.0048C8.33708 4.04137 8.95118 4.25093 9.477 4.61086C8.36425 5.18489 7.48066 6.12141 6.97227 7.26564C6.46389 8.40987 6.36114 9.69332 6.681 10.9039C5.9168 10.7199 5.23675 10.2841 4.75041 9.66662C4.26407 9.04912 3.99974 8.28589 4 7.49986ZM7.1 11.9999H6C4.93913 11.9999 3.92172 12.4213 3.17157 13.1714C2.42143 13.9216 2 14.939 2 15.9999C2 16.5303 2.21071 17.039 2.58579 17.4141C2.96086 17.7891 3.46957 17.9999 4 17.9999H4.5C4.49973 16.9325 4.78418 15.8845 5.32401 14.9637C5.86383 14.043 6.63949 13.2829 7.571 12.7619C7.39354 12.5211 7.23602 12.2662 7.1 11.9999Z" fill="#F6F7F9"/>
</svg>
