<svg width="32" height="32" viewBox="0 0 32 32" fill="none" xmlns="http://www.w3.org/2000/svg">
<path d="M0 8C0 3.58172 3.58172 0 8 0H24C28.4183 0 32 3.58172 32 8V24C32 28.4183 28.4183 32 24 32H8C3.58172 32 0 28.4183 0 24V8Z" fill="#F6F7F9"/>
<path d="M23.9533 15.2042C24.2066 15.5595 24.3333 15.7371 24.3333 16.0001C24.3333 16.263 24.2066 16.4407 23.9533 16.7959C22.8149 18.3922 19.9077 21.8334 16 21.8334C12.0923 21.8334 9.18507 18.3922 8.04669 16.7959C7.79333 16.4407 7.66666 16.263 7.66666 16.0001C7.66666 15.7371 7.79333 15.5595 8.04669 15.2042C9.18507 13.6079 12.0923 10.1667 16 10.1667C19.9077 10.1667 22.8149 13.6079 23.9533 15.2042Z" stroke="#14181F" stroke-width="1.5"/>
<path d="M18.5 16C18.5 14.6193 17.3807 13.5 16 13.5C14.6193 13.5 13.5 14.6193 13.5 16C13.5 17.3807 14.6193 18.5 16 18.5C17.3807 18.5 18.5 17.3807 18.5 16Z" stroke="#14181F" stroke-width="1.5"/>
</svg>
